<svg xmlns="http://www.w3.org/2000/svg" width="24" height="24" viewBox="0 0 24 24"><defs><style>.a,.b{fill:#fff;}.a{opacity:0;}</style></defs><g transform="translate(-1312 -187)"><rect class="a" width="24" height="24" transform="translate(1312 187)"/><path class="b" d="M14.538,12.22a3.993,3.993,0,0,0,3.868-4.11A3.993,3.993,0,0,0,14.538,4,3.993,3.993,0,0,0,10.67,8.11,3.993,3.993,0,0,0,14.538,12.22Zm-8.7-2.055V7.082H3.9v3.082H1V12.22H3.9V15.3H5.835V12.22h2.9V10.165Zm8.7,4.11c-2.582,0-7.736,1.377-7.736,4.11V20.44H22.275V18.385C22.275,15.652,17.12,14.275,14.538,14.275Z" transform="translate(1312 187)"/></g></svg>