<svg xmlns="http://www.w3.org/2000/svg" width="24" height="24" viewBox="0 0 24 24"><defs><style>.a{fill:#f8f8f8;fill-rule:evenodd;}</style></defs><g transform="translate(0 0)"><g transform="translate(0 0)"><g transform="translate(0 0)"><path class="a" d="M45.2,44a1.2,1.2,0,1,0,1.2,1.2A1.2,1.2,0,0,0,45.2,44" transform="translate(-26.4 -26.4)"/><path class="a" d="M39.2,41.2a2,2,0,1,1,2-2,2,2,0,0,1-2,2m4.875-2.854-.578-.111a.788.788,0,0,1-.487-1.24l.363-.494a.4.4,0,0,0-.04-.52L42.55,35.2a.4.4,0,0,0-.508-.048l-.486.33a.789.789,0,0,1-1.222-.533l-.093-.606a.4.4,0,0,0-.4-.339H38.738a.4.4,0,0,0-.393.324l-.143.746a.788.788,0,0,1-1.216.5l-.629-.426a.4.4,0,0,0-.507.048l-.784.783a.4.4,0,0,0-.04.52l.363.494a.789.789,0,0,1-.487,1.241l-.578.111a.4.4,0,0,0-.325.393v1.108a.4.4,0,0,0,.339.4l.606.093a.789.789,0,0,1,.533,1.222l-.33.487a.4.4,0,0,0,.048.507l.783.783a.4.4,0,0,0,.519.04l.495-.363a.789.789,0,0,1,1.24.487l.111.577a.4.4,0,0,0,.393.325h1.108a.4.4,0,0,0,.4-.339l.066-.426a.789.789,0,0,1,1.246-.516l.348.255a.4.4,0,0,0,.52-.04l.783-.783a.4.4,0,0,0,.048-.507l-.33-.487a.789.789,0,0,1,.533-1.222l.606-.093a.4.4,0,0,0,.339-.4V38.738a.4.4,0,0,0-.325-.393" transform="translate(-20.4 -20.4)"/><path class="a" d="M13.726,15.613l-.775-.423a1.056,1.056,0,0,1-.551-.928V12.939a8.407,8.407,0,0,0,1.4-2.9A1.59,1.59,0,0,0,14.4,8.8V7.2A1.594,1.594,0,0,0,14,6.15V4.022a3.588,3.588,0,0,0-.837-2.61A5.036,5.036,0,0,0,9.2,0,5.036,5.036,0,0,0,5.237,1.412,3.585,3.585,0,0,0,4.4,4.022V6.15A1.592,1.592,0,0,0,4,7.2V8.8a1.59,1.59,0,0,0,.6,1.244,8.4,8.4,0,0,0,1.4,2.9v1.323a1.057,1.057,0,0,1-.551.928L1.881,17.137A3.605,3.605,0,0,0,0,20.3V22a.4.4,0,0,0,.4.4H14.012a5.953,5.953,0,0,1-.286-6.787" transform="translate(0 0)"/></g></g></g></svg>