<?xml version="1.0"?>
<svg xmlns="http://www.w3.org/2000/svg" id="Layer_1" enable-background="new 0 0 512 512" height="512px" viewBox="0 0 512 512" width="512px"><g><path d="m512 106v-30h-512v30h61v30h-61v300h512v-300h-61v-30zm-301 30v-30h90v30zm-120-30h90v30h-90zm-31.77 270 69.27-138.54 22.5 45 37.5-75 84.27 168.54zm391.77 0h-150v-30h150zm0-60h-150v-30h150zm-30-180h-90v-30h90z" data-original="#000000" class="active-path" data-old_color="#000000" fill="#FFFFFF"/><path d="m167.77 316 15 30h41.46l-35.73-71.46z" data-original="#000000" class="active-path" data-old_color="#000000" fill="#FFFFFF"/><path d="m107.77 346h41.46l-20.73-41.46z" data-original="#000000" class="active-path" data-old_color="#000000" fill="#FFFFFF"/></g> </svg>
