<svg xmlns="http://www.w3.org/2000/svg" width="32" height="32" viewBox="0 0 32 32"><defs><style>.a,.b{fill:#fff;}.a{opacity:0;}</style></defs><g transform="translate(-25 -574)"><rect class="a" width="32" height="32" transform="translate(25 574)"/><path class="b" d="M19.8,14.2h-6v6h6ZM18.6,1V3.4H9V1H6.6V3.4H5.4A2.389,2.389,0,0,0,3.012,5.8L3,22.6A2.4,2.4,0,0,0,5.4,25H22.2a2.407,2.407,0,0,0,2.4-2.4V5.8a2.407,2.407,0,0,0-2.4-2.4H21V1Zm3.6,21.6H5.4V9.4H22.2Z" transform="translate(27 577)"/></g></svg>