<?xml version="1.0"?>
<svg xmlns="http://www.w3.org/2000/svg" id="Layer_1" data-name="Layer 1" viewBox="0 0 512 512" width="512px" height="512px"><g><title class="active-path" style="">campaign </title><path d="M283.069,44.069a6,6,0,0,0,4.243-10.243L260.242,6.757a6,6,0,0,0-8.484,0l-27.07,27.069a6,6,0,0,0,8.485,8.485l15.87-15.869V77.035a6,6,0,0,0,12,0V25.355a5.966,5.966,0,0,0-.075-.9l17.859,17.858A5.979,5.979,0,0,0,283.069,44.069Z" data-original="#000000" class="active-path" fill="#FFFFFF"/><path d="M224.688,469.688a6,6,0,0,0,0,8.486l27.07,27.069a6,6,0,0,0,8.484,0l27.07-27.069a6,6,0,0,0-8.485-8.486l-15.87,15.87V434.965a6,6,0,0,0-12,0v51.679a5.968,5.968,0,0,0,.075.9l-17.859-17.859A6,6,0,0,0,224.688,469.688Z" data-original="#000000" class="active-path" fill="#FFFFFF"/><path d="M42.312,278.826l-15.87-15.869H77.035a6,6,0,0,0,0-12H25.355a5.966,5.966,0,0,0-.9.075l17.859-17.858a6,6,0,1,0-8.485-8.486L6.758,251.757a6,6,0,0,0,0,8.486l27.069,27.068a6,6,0,0,0,8.485-8.485Z" data-original="#000000" class="active-path" fill="#FFFFFF"/><path d="M505.242,251.757l-27.069-27.069a6,6,0,1,0-8.485,8.486l15.87,15.869H434.965a6,6,0,0,0,0,12h51.68a6.1,6.1,0,0,0,.9-.075l-17.859,17.858a6,6,0,1,0,8.485,8.485l27.069-27.068a6,6,0,0,0,0-8.486Z" data-original="#000000" class="active-path" fill="#FFFFFF"/><path d="M127.04,82.759a6,6,0,0,0-6-6H82.759a6,6,0,0,0-6,6V121.04a6,6,0,0,0,12,0V98.6l35.775,35.775a6,6,0,0,0,8.485-8.485L96.476,89.344a5.964,5.964,0,0,0-.716-.585h25.28A6,6,0,0,0,127.04,82.759Z" data-original="#000000" class="active-path" fill="#FFFFFF"/><path d="M429.241,384.96a6,6,0,0,0-6,6V413.4l-35.775-35.775a6,6,0,0,0-8.485,8.485l36.543,36.543a5.964,5.964,0,0,0,.716.585H390.96a6,6,0,0,0,0,12h38.281a6,6,0,0,0,6-6V390.96A6,6,0,0,0,429.241,384.96Z" data-original="#000000" class="active-path" fill="#FFFFFF"/><path d="M435.241,121.04V82.759a6,6,0,0,0-6-6H390.96a6,6,0,0,0,0,12H413.4l-35.775,35.774a6,6,0,1,0,8.484,8.485l36.544-36.543a5.811,5.811,0,0,0,.585-.716V121.04a6,6,0,0,0,12,0Z" data-original="#000000" class="active-path" fill="#FFFFFF"/><path d="M134.373,378.981a6,6,0,0,0-8.485,0L89.344,415.524a5.964,5.964,0,0,0-.585.716V390.96a6,6,0,0,0-12,0v38.281a6,6,0,0,0,6,6H121.04a6,6,0,0,0,0-12H98.6l35.775-35.774A6,6,0,0,0,134.373,378.981Z" data-original="#000000" class="active-path" fill="#FFFFFF"/><polygon points="346.229 140.495 219.271 191.278 219.271 288.067 346.229 338.849 346.229 140.495" data-original="#000000" class="active-path" fill="#FFFFFF"/><rect x="197.037" y="193.216" width="10.233" height="92.913" data-original="#000000" class="active-path" fill="#FFFFFF"/><path d="M185.037,286.129V193.216H143.792A21.816,21.816,0,0,0,122,215.008v49.33a21.816,21.816,0,0,0,21.792,21.791Z" data-original="#000000" class="active-path" fill="#FFFFFF"/><path d="M390,237.935a30.859,30.859,0,0,0-30.824-30.823h-.947v61.647h.947A30.859,30.859,0,0,0,390,237.935Z" data-original="#000000" class="active-path" fill="#FFFFFF"/><path d="M179.74,374.367a21.129,21.129,0,0,0,20.368-26.741l-13.641-49.5H143.792c-.39,0-.776-.017-1.163-.03l16.743,60.754A21.185,21.185,0,0,0,179.74,374.367Z" data-original="#000000" class="active-path" fill="#FFFFFF"/></g> </svg>
