<?xml version="1.0"?>
<svg xmlns="http://www.w3.org/2000/svg" id="Layer_1" data-name="Layer 1" viewBox="0 0 512 512" width="512px" height="512px" class=""><g><title class="active-path">Wallet Rupees</title><polygon points="187.758 117.698 145.177 130 175.457 130 187.758 117.698" data-original="#000000" class="active-path" fill="#FFFFFF"/><polygon points="282.131 43.124 195.256 130 369.785 130 282.131 43.124" data-original="#000000" class="active-path" fill="#FFFFFF"/><polygon points="394 130 394 46.251 328.544 69.379 389.673 130 394 130" data-original="#000000" class="active-path" fill="#FFFFFF"/><path d="M126.01,304.817a82.159,82.159,0,1,0,82.159,82.159A82.252,82.252,0,0,0,126.01,304.817ZM144.335,362h11.07a7,7,0,0,1,0,14h-11.07a33.06,33.06,0,0,1-32.142,26.19l30.7,29.176a7,7,0,0,1-9.616,10.169L89.787,400.49a6.622,6.622,0,0,1-1.7-7.433A6.692,6.692,0,0,1,94.6,389H112c8.055,0,14.945-5,17.745-13H94.6a7,7,0,0,1,0-14H129.74A19.133,19.133,0,0,0,112,350H94.6a7,7,0,0,1,0-14h60.81a7,7,0,0,1,0,14H139A40.115,40.115,0,0,1,144.335,362Z" data-original="#000000" class="active-path" fill="#FFFFFF"/><path d="M362.111,280.5A52.576,52.576,0,0,0,414.72,333H468V228H414.72A52.576,52.576,0,0,0,362.111,280.5Zm69.949-.142a27.231,27.231,0,1,1-27.231-27.231A27.261,27.261,0,0,1,432.06,280.358Z" data-original="#000000" class="active-path" fill="#FFFFFF"/><path d="M102,293.972a89.736,89.736,0,0,1,24.232-3.2c53.022,0,95.937,43.222,95.937,96.244A95.429,95.429,0,0,1,217.715,416H468V347H414.72a66.5,66.5,0,1,1,0-133H468V144H102Z" data-original="#000000" class="active-path" fill="#FFFFFF"/><circle cx="404.829" cy="280.358" r="13.23" data-original="#000000" class="active-path" fill="#FFFFFF"/></g> </svg>
