<svg width="512" height="512" xmlns="http://www.w3.org/2000/svg" preserveAspectRatio="xMidYMid meet">
 <metadata>Created by potrace 1.16, written by Peter Selinger 2001-2019</metadata>

 <g>
  <title>background</title>
  <rect fill="none" id="canvas_background" height="396.608754" width="399.636443" y="-1" x="-1"/>
 </g>
 <g>
  <title>Layer 1</title>
  <path stroke="#ffffff" stroke-opacity="0" fill="#fcfcfc" id="svg_2" d="m300.500004,1.399992c-10.4,3.3 -11.8,4.6 -102.000002,94.700001l-89.000001,88.900001l-35.000001,0c-28.3,0 -36.200001,0.3 -41.000001,1.5c-15.2,4 -26.4,14.4 -31.5,29.4c-2,6.1 -2,7.3 -1.8,134.900002l0.3,128.700002l3.2,6.6c5.8,11.9 14.8,19.8 26.9,23.9c5.8,2 8.7,2 227.400003,1.8l221.500003,-0.3l7,-3.4c9.2,-4.5 17.1,-12.4 21.6,-21.6l3.4,-7l-0.1,-129.500002c0,-71.200001 -0.1,-131.500002 -0.3,-134.000002c-0.1,-2.5 0.1,-9.3 0.4,-15.2c0.8,-11.7 -0.3,-16.9 -5.2,-25.8c-3.1,-5.6 -160.700002,-163.700002 -167.600002,-168.100003c-7.2,-4.7 -15.5,-6.9 -25.5,-6.8c-4.8,0 -10.5,0.6 -12.7,1.3zm22.1,32.5c2.1,1.6 18.3,17.3 35.900001,35.000001l32,32.1l-42.000001,42.000001l-42.000001,42.000001l-76.500001,0l-76.500001,0l75.000001,-75.100001c41.300001,-41.300001 76.400001,-76.000001 78.000001,-77.000001c4.7,-2.9 11.3,-2.5 16.1,1zm89.700001,130.300002l-20.8,20.8l-20.5,0l-20.5,0l31,-31l31,-31l10.2,10.2l10.3,10.3l-20.7,20.7zm53.000001,11.5l9.7,9.8l-19.7,-0.3l-19.7,-0.3l9.4,-9.4c5.2,-5.2 9.7,-9.5 10,-9.5c0.3,0 4.9,4.4 10.3,9.7zm7,41.400001c4.8,2.5 7.6,6.2 8.7,11.3c0.7,3.5 1,43.000001 0.8,123.600002c-0.3,116.500002 -0.3,118.600002 -2.3,121.800002c-1.1,1.8 -3.6,4.3 -5.5,5.5l-3.5,2.2l-214.500003,0l-214.500003,0l-3.5,-2.2c-1.9,-1.2 -4.4,-3.7 -5.5,-5.5c-2,-3.3 -2,-5.1 -2,-125.500002l0,-122.200002l2.1,-2.8c1.1,-1.5 3.6,-3.8 5.4,-5.1l3.3,-2.2l214.400003,0c156.600002,0 215.000003,0.3 216.600003,1.1z"/>
  <path stroke="#ffffff" stroke-opacity="0" fill="#fcfcfc" id="svg_3" d="m76.200001,256.299996c-4.6,1.4 -12.1,8.4 -14.3,13.2c-1.7,3.6 -1.9,7 -1.9,30.9c0,30.5 0.3,32 8,39.000001c6.9,6.2 10.7,6.8 45.200001,6.4c27.3,-0.3 30.6,-0.5 33.800001,-2.2c4.9,-2.6 9.8,-7.4 12.3,-12.1c2.1,-3.8 2.2,-5.2 2.2,-31l0,-27l-2.9,-5.3c-1.6,-2.8 -4.4,-6.3 -6.2,-7.7c-6.8,-5.2 -9.2,-5.5 -42.300001,-5.4c-18.4,0.1 -31.9,0.5 -33.900001,1.2zm54.800001,44.200001l0,14.5l-20.5,0l-20.5,0l0,-14.5l0,-14.5l20.5,0l20.5,0l0,14.5z"/>
  <path stroke="#ffffff" stroke-opacity="0" fill="#fcfcfc" id="svg_4" d="m59.000001,421.499999l0,15.5l35.000001,0l35.000001,0l0,-15.5l0,-15.5l-35.000001,0l-35.000001,0l0,15.5z"/>
  <path stroke="#ffffff" stroke-opacity="0" fill="#fcfcfc" id="svg_5" d="m167.000002,421.499999l0,15.5l35.000001,0l35.000001,0l0,-15.5l0,-15.5l-35.000001,0l-35.000001,0l0,15.5z"/>
  <path stroke="#ffffff" stroke-opacity="0" fill="#fcfcfc" id="svg_6" d="m275.000004,421.499999l0,15.5l35.000001,0l35.000001,0l0,-15.5l0,-15.5l-35.000001,0l-35.000001,0l0,15.5z"/>
  <path stroke="#ffffff" stroke-opacity="0" fill="#fcfcfc" id="svg_7" d="m383.000006,421.499999l0,15.5l35.000001,0l35.000001,0l0,-15.5l0,-15.5l-35.000001,0l-35.000001,0l0,15.5z"/>
 </g>
</svg>