<svg width="100" height="100" xmlns="http://www.w3.org/2000/svg" preserveAspectRatio="xMidYMid meet">
 <metadata>Created by potrace 1.16, written by Peter Selinger 2001-2019</metadata>

 <g>
  <title>background</title>
  <rect fill="none" id="canvas_background" height="402" width="582" y="-1" x="-1"/>
 </g>
 <g>
  <title>Layer 1</title>
  <path fill="#ffffff" stroke="#ffffff" id="svg_2" d="m45.200001,5.199999c-2,2 -1.5,8.6 0.8,10c1.5,1 2,2.4 2,6c0,4.1 0.3,4.8 2,4.8c1.7,0 2,-0.7 2,-4.8c0,-3.6 0.5,-5 2,-6c2.3,-1.4 2.8,-8 0.8,-10c-1.6,-1.6 -8,-1.6 -9.6,0z"/>
  <path fill="#ffffff" stroke="#ffffff" id="svg_3" d="m9.2,23.199999c-1.6,1.6 -1.6,8 0,9.6c0.7,0.7 3.1,1.2 5.5,1.2c3.2,0 5.9,1 10.8,4c7.3,4.5 10.5,5.1 10.5,2.1c0,-1.4 -2.4,-3.4 -8,-6.8c-5.9,-3.5 -8,-5.3 -8,-6.8c0,-1.2 -0.5,-2.6 -1.2,-3.3c-1.6,-1.6 -8,-1.6 -9.6,0z"/>
  <path fill="#ffffff" stroke="#ffffff" id="svg_4" d="m81.200001,23.199999c-0.7,0.7 -1.2,2.1 -1.2,3.3c0,1.5 -2.1,3.3 -8,6.8c-5.6,3.4 -8,5.4 -8,6.8c0,3 3.2,2.4 10.5,-2.1c4.9,-3 7.6,-4 10.8,-4c2.4,0 4.8,-0.5 5.5,-1.2c1.6,-1.6 1.6,-8 0,-9.6c-1.6,-1.6 -8,-1.6 -9.6,0z"/>
  <path fill="#ffffff" stroke="#ffffff" id="svg_5" d="m43.800001,31.399999c-5,3.8 -4.4,17.2 1,21.2c2.5,1.8 0.5,4.8 -5,7.5c-4.2,2 -5.4,3 -5.6,5.2l-0.3,2.7l16.1,0l16.1,0l-0.3,-2.7c-0.2,-2.2 -1.4,-3.2 -5.6,-5.2c-6,-2.9 -7.3,-5.3 -4.4,-8.4c3,-3.3 3.9,-5.8 3.6,-10c-0.4,-6.9 -1.2,-8.7 -4.4,-9.4c-1.7,-0.3 -3,-0.9 -3,-1.4c0,-1.4 -6.3,-1 -8.2,0.5z"/>
  <path fill="#ffffff" stroke="#ffffff" id="svg_6" d="m22.8,63.499999c-2.5,1.7 -5.1,2.5 -8,2.5c-5.3,0 -6.8,1.3 -6.8,6c0,4.5 1.5,6 6,6c4.1,0 6,-1.4 6,-4.4c0,-1.4 1.6,-3.1 4.8,-5.1c5.4,-3.3 6.2,-4.3 5.5,-6.2c-0.8,-2 -3.4,-1.6 -7.5,1.2z"/>
  <path fill="#ffffff" stroke="#ffffff" id="svg_7" d="m69.700001,62.299999c-0.7,1.9 0.1,2.9 5.5,6.2c3.2,2 4.8,3.7 4.8,5c0,3.1 1.9,4.5 6,4.5c4.5,0 6,-1.5 6,-6c0,-4.7 -1.5,-6 -6.8,-6c-2.9,0 -5.5,-0.8 -8,-2.5c-4.1,-2.8 -6.7,-3.2 -7.5,-1.2z"/>
  <path fill="#ffffff" stroke="#ffffff" id="svg_8" d="m48.000001,77.8c0,4.6 -0.4,6 -2,7c-2.3,1.4 -2.8,8 -0.8,10c1.6,1.6 8,1.6 9.6,0c2,-2 1.5,-8.6 -0.8,-10c-1.6,-1 -2,-2.4 -2,-7c0,-5.1 -0.2,-5.8 -2,-5.8c-1.8,0 -2,0.7 -2,5.8z"/>
 </g>
</svg>