<svg width="512" height="512" xmlns="http://www.w3.org/2000/svg" preserveAspectRatio="xMidYMid meet">
 <metadata>Created by potrace 1.16, written by Peter Selinger 2001-2019</metadata>

 <g>
  <title>background</title>
  <rect fill="none" id="canvas_background" height="402" width="582" y="-1" x="-1"/>
 </g>
 <g>
  <title>Layer 1</title>
  <path stroke="#ffffff" stroke-opacity="0" fill="#ffffff" id="svg_2" d="m446.800007,1.399992c-3.6,2.7 -3.8,6 -3.8,55.600001l0,48.800001l-24.7,15.5l-24.8,15.5l-0.5,-14.6c-0.3,-8.1 -0.9,-15.4 -1.3,-16.3c-1,-2 -5,-3.9 -8.1,-3.9c-2.5,0 -5.4,1.7 -36.600001,21.2l-21.5,13.5l-0.5,-14.9c-0.5,-14.9 -0.5,-15 -3.3,-17.4c-5.2,-4.5 -6.3,-4 -43.600001,19.2c-19,11.9 -35.700001,22.7 -37.100001,24l-2.5,2.4l-0.3,35.000001c-0.2,22.9 0.1,36.300001 0.8,39.000001c2,7.5 -8.4,7 136.500002,7c138.000002,0 134.100002,0.1 135.900002,-4.5c0.3,-0.9 0.6,-51.300001 0.6,-111.900002l0,-110.300002l-2.3,-2.1c-2.3,-2.2 -2.9,-2.2 -31.8,-2.2c-22.5,0.1 -29.8,0.4 -31.1,1.4zm47.200001,71.600001l0,55.000001l-16.5,0l-16.5,0l0,-55.000001l0,-55.000001l16.5,0l16.5,0l0,55.000001zm-187.000003,97.500001l0,42.500001l-25.5,0l-25.5,0l0,-26.9l0,-26.9l24.8,-15.6c13.6,-8.5 25,-15.5 25.5,-15.6c0.4,0 0.7,19.1 0.7,42.500001zm68.000001,0l0,42.500001l-25,0l-25,0l0,-27.3l0,-27.2l24.3,-15.2c13.3,-8.3 24.5,-15.2 25,-15.2c0.4,-0.1 0.7,19 0.7,42.400001zm68.000001,0l0,42.500001l-25,0l-25,0l0,-27.3l0.1,-27.2l24.2,-15.2c13.3,-8.3 24.5,-15.2 25,-15.2c0.4,-0.1 0.7,19 0.7,42.400001zm51.000001,9l0,33.5l-16.5,0l-16.5,0l0,-33.5l0,-33.5l16.5,0l16.5,0l0,33.5z"/>
  <path stroke="#ffffff" stroke-opacity="0" fill="#ffffff" id="svg_3" d="m273.000004,183.499995l0,13.5l9,0l9,0l0,-13.5l0,-13.5l-9,0l-9,0l0,13.5z"/>
  <path stroke="#ffffff" stroke-opacity="0" fill="#ffffff" id="svg_4" d="m341.000005,183.499995l0,13.5l9,0l9,0l0,-13.5l0,-13.5l-9,0l-9,0l0,13.5z"/>
  <path stroke="#ffffff" stroke-opacity="0" fill="#ffffff" id="svg_5" d="m409.000006,183.499995l0,13.5l9,0l9,0l0,-13.5l0,-13.5l-9,0l-9,0l0,13.5z"/>
  <path stroke="#ffffff" stroke-opacity="0" fill="#ffffff" id="svg_6" d="m229.200003,35.199993c-7.8,1 -8.3,1.2 -7.9,3.2c0.3,1.1 0.9,4.6 1.2,7.7c0.4,3.1 1,6.1 1.4,6.8c0.8,1.2 13.8,0.5 16,-0.9c1.5,-0.9 0.3,-18.1 -1.3,-17.9c-0.6,0.1 -4.8,0.6 -9.4,1.1z"/>
  <path stroke="#ffffff" stroke-opacity="0" fill="#ffffff" id="svg_7" d="m256.000004,42.999993l0,9l9,0c8.7,0 9,-0.1 9,-2.3c0,-1.2 0.3,-5.2 0.7,-9l0.6,-6.7l-9.7,0l-9.6,0l0,9z"/>
  <path stroke="#ffffff" stroke-opacity="0" fill="#ffffff" id="svg_8" d="m291.600004,39.099993c-1.7,7.5 -2.5,14.4 -1.9,15c0.9,0.8 15.6,3.9 16.1,3.4c0.5,-0.5 4.2,-14.7 4.2,-16.2c0,-1.1 -4.9,-2.5 -13.9,-3.9c-3.6,-0.6 -4.1,-0.4 -4.5,1.7z"/>
  <path stroke="#ffffff" stroke-opacity="0" fill="#ffffff" id="svg_9" d="m194.300003,42.299993c-4,1.1 -7.3,2.5 -7.3,3.2c0,1.1 4.7,15.5 5.3,16.1c0.6,0.6 16.2,-4.5 16.1,-5.2c-0.1,-0.5 -0.9,-4.4 -1.8,-8.7c-2,-8.8 -1.3,-8.5 -12.3,-5.4z"/>
  <path stroke="#ffffff" stroke-opacity="0" fill="#ffffff" id="svg_10" d="m323.600005,52.699993c-1.4,4.3 -2.6,8.3 -2.6,8.8c0,1.4 15,6.9 16,5.8c0.9,-0.9 7.2,-15.5 6.8,-15.8c-0.3,-0.1 -12.3,-4.7 -15.9,-6c-1.4,-0.5 -2.2,0.9 -4.3,7.2z"/>
  <path stroke="#ffffff" stroke-opacity="0" fill="#ffffff" id="svg_11" d="m161.500002,54.699993c-3.8,1.9 -7.1,3.7 -7.3,3.8c-0.7,0.6 7.3,15.5 8.3,15.5c0.6,0 4.3,-1.5 8.2,-3.4l7.2,-3.5l-3.3,-7.8c-1.8,-4.3 -3.9,-7.9 -4.7,-8c-0.8,-0.1 -4.5,1.4 -8.4,3.4z"/>
  <path stroke="#ffffff" stroke-opacity="0" fill="#ffffff" id="svg_12" d="m355.100005,66.399993c-2.3,4 -4.1,7.7 -4.1,8.2c0,1.1 14.7,9.1 15.2,8.4c0.2,-0.3 2.4,-3.6 4.8,-7.4l4.4,-6.8l-2.3,-1.7c-1.2,-1 -4.9,-3.2 -8.1,-4.9l-5.8,-3.2l-4.1,7.4z"/>
  <path stroke="#ffffff" stroke-opacity="0" fill="#ffffff" id="svg_13" d="m131.800002,71.499993c-3.6,2.4 -6.9,4.9 -7.3,5.4c-0.9,1.6 9.4,15.3 10.8,14.4c7,-4.5 12.7,-8.8 12.7,-9.6c0,-1.2 -8.2,-14.7 -9,-14.7c-0.3,0 -3.5,2 -7.2,4.5z"/>
  <path stroke="#ffffff" stroke-opacity="0" fill="#ffffff" id="svg_14" d="m103.700002,93.999994c-3.7,3.5 -6.6,6.6 -6.5,6.9c0.2,0.3 3.1,3.3 6.6,6.5l6.3,6l5.9,-5.9c3.3,-3.3 6,-6.2 6,-6.5c0,-0.3 -2.6,-3.4 -5.8,-6.9l-5.8,-6.4l-6.7,6.3z"/>
  <path stroke="#ffffff" stroke-opacity="0" fill="#ffffff" id="svg_15" d="m79.700001,120.499994l-5.7,7.4l3.5,2.5c1.9,1.4 5,3.7 6.9,5.1c1.9,1.4 3.9,2.5 4.3,2.5c0.5,0 3.1,-3 5.8,-6.7l4.9,-6.6l-4.5,-3.9c-2.4,-2.2 -5.6,-4.8 -7,-5.8l-2.5,-1.9l-5.7,7.4z"/>
  <path stroke="#ffffff" stroke-opacity="0" fill="#ffffff" id="svg_16" d="m62.400001,146.699995c-5.9,10.4 -6.5,11.6 -6.2,11.8c0.9,0.8 14.9,7.5 15.7,7.5c0.8,0 8.1,-13 8.1,-14.4c0,-0.5 -2.2,-2 -11.2,-7.4l-3.7,-2.3l-2.7,4.8z"/>
  <path stroke="#ffffff" stroke-opacity="0" fill="#ffffff" id="svg_17" d="m2.5,181.499995l-2.5,2.4l0,89.400001l0,89.400001l2.3,2.1c2.2,2.1 3.3,2.2 17.3,2.2l15,0l2.3,5.5c1.3,3.1 4.3,7.5 6.7,10c17.1,17 44.900001,12.5 55.500001,-9.1l3.2,-6.4l34.300001,0l34.300001,0l3,6.4c3.6,7.4 9.1,12.8 17,16.5c4.7,2.2 7,2.6 14.1,2.6c7.1,0 9.4,-0.4 14.2,-2.7c7.3,-3.4 14,-10.2 16.9,-17.3l2.3,-5.5l10.2,0c11.9,0 13,-0.3 14.9,-4.1c2.2,-4.1 2.2,-81.600001 0.1,-85.700001c-0.8,-1.5 -11.5,-12.7 -23.9,-25l-22.4,-22.2l-23.1,0l-23.2,0l0,-22.9l0,-22.8l-2.5,-2.7l-2.4,-2.6l-80.600001,0l-80.600001,0l-2.4,2.5zm150.500002,62.000001l0,46.500001l-67.500001,0l-67.500001,0l0,-46.500001l0,-46.500001l67.500001,0l67.500001,0l0,46.500001zm75.200001,23.2l18.8,18.8l0,31.7l0,31.8l-4.3,0c-4.1,0 -4.3,-0.2 -6.4,-4.8c-3.4,-7.4 -8.6,-12.7 -16.1,-16.4c-6.1,-3 -7.5,-3.3 -15.7,-3.3c-7.1,0 -10,0.5 -13.7,2.2c-6.9,3.1 -14.2,10.4 -16.9,16.8l-2.4,5.5l-35.100001,0l-35.200001,0l-0.6,-2.6c-1.7,-6.8 -10.4,-16 -18.5,-19.7c-3.6,-1.7 -6.6,-2.2 -13.6,-2.2c-8.2,0 -9.6,0.3 -15.7,3.3c-7.5,3.6 -12.3,8.6 -15.9,16.2l-2.4,5l-8.2,0l-8.3,0l0,-20.5l0,-20.5l74.100001,-0.2l74.100001,-0.3l2.4,-2.8l2.4,-2.8l0,-27l0,-26.9l19.2,0l19.3,0l18.7,18.7zm-152.800002,77.300001c9,4.4 12.1,15.8 6.3,23.3c-3.6,4.7 -6.5,6.6 -11.1,7.4c-5.1,0.8 -12,-2.1 -15.2,-6.3c-4.7,-6.1 -4.2,-16.4 0.9,-21.2c5.8,-5.4 12.3,-6.5 19.1,-3.2zm139.200002,1.5c13.5,10.3 3.7,32.2 -13,29.1c-7.8,-1.5 -14.4,-11 -13.1,-18.8c0.8,-4.5 5.5,-10.4 10,-12.5c4.6,-2.1 11.8,-1.1 16.1,2.2z"/>
  <path stroke="#ffffff" stroke-opacity="0" fill="#ffffff" id="svg_18" d="m460.000007,255.499996c0,9.7 -0.7,9 11.3,9.8l6.7,0.5l0,-9.4l0,-9.4l-9,0l-9,0l0,8.5z"/>
  <path stroke="#ffffff" stroke-opacity="0" fill="#ffffff" id="svg_19" d="m457.500007,281.199997c-0.8,2.5 -2.5,11.9 -2.5,13.7c0,1.5 1.7,2.3 8.2,3.9c4.5,1.2 8.4,2 8.5,1.8c0.2,-0.1 1.1,-4.3 2.1,-9.3l1.9,-9l-7.6,-1.2c-9.5,-1.4 -10.1,-1.4 -10.6,0.1z"/>
  <path stroke="#ffffff" stroke-opacity="0" fill="#ffffff" id="svg_20" d="m447.100007,319.199997c-1.7,4.4 -3.1,8.1 -3.1,8.3c0,0.9 16.3,6.6 16.9,5.9c1.6,-1.8 6.2,-15.7 5.4,-16.4c-0.4,-0.4 -4.3,-1.9 -8.5,-3.3l-7.7,-2.5l-3,8z"/>
  <path stroke="#ffffff" stroke-opacity="0" fill="#ffffff" id="svg_21" d="m433.000006,348.899998c-2.2,3.8 -4,7.1 -4,7.3c0,0.7 15.1,10.1 15.4,9.7c1.2,-1.4 8.6,-14.9 8.6,-15.6c0,-1 -13.1,-8.3 -14.8,-8.3c-0.6,0 -2.9,3.1 -5.2,6.9z"/>
  <path stroke="#ffffff" stroke-opacity="0" fill="#ffffff" id="svg_22" d="m281.700004,375.999998c-9.4,2.4 -18.1,9.5 -22.7,18.6c-3.7,7.4 -4.1,19.9 -0.8,28.1l2.5,6.1l-3.9,1.6c-5.1,2.3 -12,9.4 -14.8,15.3c-3,6.5 -4.2,16.4 -3.8,31.5c0.3,11.8 0.5,12.8 2.7,15.2l2.4,2.6l40.400001,0l40.300001,0l0,6c0,5.1 0.4,6.5 2.5,8.5l2.4,2.5l46.600001,0l46.600001,0l2.4,-2.5c2.1,-2 2.5,-3.4 2.5,-8.5l0,-6l40.300001,0l40.400001,0l2.2,-2.4c2.2,-2.3 2.2,-2.8 1.9,-22.2c-0.3,-19.3 -0.4,-20.1 -2.9,-24.9c-3.3,-6.2 -10.1,-13 -15.1,-15.2c-2.1,-0.9 -3.7,-1.9 -3.5,-2.2c3.4,-6 4.2,-9.2 4.2,-18.6c0,-8.7 -0.3,-10.6 -2.5,-14.9c-3.5,-6.9 -10,-13.3 -16.8,-16.4c-4.7,-2.2 -7.1,-2.6 -14.2,-2.7c-7.3,0 -9.4,0.4 -14.7,2.9c-14.9,6.9 -23,23.7 -18.9,39.500001c0.9,3.5 2.3,7.2 3.1,8.4c1.3,1.9 1.2,2.1 -2.4,3.7c-4.6,2.1 -13.3,10.7 -15,14.9c-1.5,3.5 -1.9,3.6 -5.6,1.9c-1.8,-0.8 -2.4,-1.6 -1.9,-2.7c4.5,-10.3 5.5,-19 3,-27.2c-7.8,-25.5 -40.100001,-33.1 -58.200001,-13.7c-5.9,6.3 -8.6,12.6 -9.2,21.3c-0.4,6.6 0.7,11.7 4.2,19.6c0.5,1.1 -0.3,2 -2.8,3.1l-3.4,1.7l-1.6,-3.9c-1.9,-4.8 -10.7,-13.6 -15.2,-15l-3.4,-1.1l2.1,-4c6.6,-13 3.3,-30.9 -7.4,-40.600001c-8.2,-7.4 -21.7,-10.9 -32,-8.3zm14.9,18.6c10.8,5.1 13,18 4.5,26.5c-6.1,6.1 -15.1,6.5 -21.5,0.9c-4.5,-4 -6,-7.9 -5.4,-14.1c0.6,-6.2 3.1,-9.7 8.8,-12.7c5.2,-2.6 9,-2.8 13.6,-0.6zm171.000003,0.3c10.7,4.9 12.6,19.6 3.6,27.1c-6.6,5.5 -14.7,5.2 -21.3,-0.7c-6.9,-6.3 -7.4,-15 -1.2,-22.4c5,-5.9 11.6,-7.3 18.9,-4zm-86.300001,16.5c4.2,1.7 9.3,7.6 10.2,11.6c2.2,10 -5.9,20 -16.2,20c-8,-0.1 -16.2,-8 -16.3,-15.8c0,-11.7 11.9,-20.2 22.3,-15.8zm-67.800001,34.500001c7.9,3.6 10.5,9.1 10.5,22.1l0,9l-34.000001,0l-34.000001,0l0,-7c0,-14.3 4,-22.5 12.3,-24.9c1.7,-0.5 11.8,-1 22.2,-1c16.4,0 19.5,0.2 23,1.8zm173.200003,1.3c5.9,3.9 7.3,7.7 7.3,19.7l0,10.1l-33.5,0l-33.5,0l0,-9c0,-13 2.6,-18.4 10.5,-22.2c3.6,-1.6 6.2,-1.8 24.6,-1.6c20.4,0.3 20.6,0.3 24.6,3zm-90.500001,14.8c4.8,1.4 9.7,5.5 11.4,9.7c0.9,2 1.4,7 1.4,12.8l0,9.5l-33.5,0l-33.5,0l0,-9.5c0,-13.6 2.8,-18.9 11.7,-22c4.6,-1.7 36.900001,-2 42.500001,-0.5z"/>
  <path stroke="#ffffff" stroke-opacity="0" fill="#ffffff" id="svg_23" d="m93.000001,400.999998l-6.5,5.9l5,5.1c2.7,2.8 5.4,4.9 6,4.8c0.5,-0.2 3.6,-3 6.7,-6.4l5.7,-6l-4.7,-4.7c-2.6,-2.6 -5,-4.7 -5.2,-4.7c-0.3,0.1 -3.4,2.7 -7,6z"/>
  <path stroke="#ffffff" stroke-opacity="0" fill="#ffffff" id="svg_24" d="m116.500002,420.199999c-2.2,2.9 -4.6,5.9 -5.2,6.9c-1.1,1.5 -0.3,2.4 6.2,7.3l7.4,5.6l2.4,-3.3c3.6,-4.8 7.7,-11.1 7.7,-11.7c0,-0.8 -12.6,-10 -13.6,-10c-0.5,0.1 -2.7,2.4 -4.9,5.2z"/>
  <path stroke="#ffffff" stroke-opacity="0" fill="#ffffff" id="svg_25" d="m144.100002,440.099999c-2.3,3.9 -4.1,7.6 -4.1,8.3c0,1.2 15.6,9.4 16.3,8.5c1,-1.1 6.7,-14.3 6.7,-15.3c0,-0.6 -3.3,-2.8 -7.4,-4.8l-7.5,-3.7l-4,7z"/>
  <path stroke="#ffffff" stroke-opacity="0" fill="#ffffff" id="svg_26" d="m177.200003,448.799999c-2.6,5.1 -5.4,14.4 -4.6,15.1c1.5,1.4 16.3,6 16.8,5.3c0.7,-1.3 4.8,-16.4 4.4,-16.6c-0.2,-0.2 -3.8,-1.5 -8.1,-2.9c-7.1,-2.4 -7.8,-2.4 -8.5,-0.9z"/>
  <path stroke="#ffffff" stroke-opacity="0" fill="#ffffff" id="svg_27" d="m208.100003,460.899999c-1.5,7.1 -2.4,13.1 -2,13.1c0.2,0 4.2,0.7 8.8,1.5c4.7,0.8 8.7,1.3 8.9,1.1c0.2,-0.3 0.9,-4.1 1.4,-8.6c1.3,-9.6 1.3,-9.5 -7.4,-10.4c-3.3,-0.4 -6.5,-0.9 -7.3,-1.2c-0.9,-0.4 -1.6,1 -2.4,4.5z"/>
 </g>
</svg>