<svg width="256" height="256" xmlns="http://www.w3.org/2000/svg" preserveAspectRatio="xMidYMid meet">

 <g>
  <title>background</title>
  <rect fill="none" id="canvas_background" height="22.064197" width="22.064197" y="-1" x="-1"/>
 </g>
 <g>
  <title>Layer 1</title>
  <path stroke="#ffffff" stroke-opacity="0" fill="#ffffff" id="svg_2" d="m121.100002,22.099997c-8.8,1.7 -18.2,9.4 -22.3,18.4c-3.1,6.9 -3.2,19 -0.1,25.6c2.8,6.1 8.2,12 13.8,15l4.5,2.4l0,10.6c0,9.3 -0.3,11 -2.3,13.9c-3.2,4.9 -7.1,6.7 -16.5,7.9c-14.5,1.8 -25.2,9.5 -31,22.1c-2.3,4.9 -2.6,7.1 -3,20.2l-0.4,14.6l-3.2,1.3c-5.1,2.2 -11.7,9 -14.7,15.4c-7.5,15.8 -0.4,34.800001 15.8,42.200001c20.8,9.5 44.800001,-6.2 44.700001,-29.3c-0.1,-12 -7.2,-23.5 -17.5,-28.1l-4,-1.8l0.3,-12c0.5,-17.8 3.6,-22 17.2,-23.5c8.8,-1 16.2,-3.8 21.5,-8l4.1,-3.1l3.8,3.1c5.1,4.1 13,7 21.8,8c13.4,1.5 16.6,5.8 17.2,23l0.4,11.5l-6.2,4c-10.5,6.8 -15.4,15.4 -15.4,27c0,12.6 6.5,23 18.2,28.7c5.6,2.8 7.6,3.2 13.7,3.2c12.4,-0.1 23.1,-6.9 28.6,-18c2,-4.1 2.4,-6.4 2.4,-13.9c0,-7.8 -0.4,-9.7 -2.7,-14c-3,-5.7 -9.7,-12.4 -14.5,-14.4l-3.1,-1.3l-0.4,-14.1c-0.3,-11.6 -0.8,-15.2 -2.6,-19.7c-5,-12.7 -16.8,-21.3 -31.8,-23.1c-9,-1.1 -12.9,-3.1 -16.1,-7.9c-2,-2.9 -2.3,-4.5 -2.3,-13.9l0,-10.6l5,-2.7c6.3,-3.5 12.5,-11.4 14.6,-18.6c5.2,-17.6 -6.2,-36.300001 -24.4,-40.100001c-5.9,-1.2 -6.9,-1.2 -13.1,0zm13.2,22.9c3.8,3 5.2,8 3.3,12.3c-1.5,3.7 -5.9,6.7 -9.6,6.7c-6.2,0 -11.8,-7 -10.5,-13.1c1.5,-6.8 11.2,-10.3 16.8,-5.9zm-54.300001,148.700002c8.6,5.1 5.4,19.3 -4.4,19.3c-4.7,0 -7.9,-1.6 -9.9,-5c-2.8,-4.6 -2.2,-8.7 1.7,-12.6c3.9,-3.9 8,-4.5 12.6,-1.7zm108.600002,1.7c3.9,3.9 4.5,8 1.7,12.6c-5.2,8.8 -19.4,5.4 -19.3,-4.7c0.1,-7 4.2,-11.2 10.9,-11.3c2.5,0 4.2,0.9 6.7,3.4z"/>
 </g>
</svg>