<?xml version="1.0"?>
<svg xmlns="http://www.w3.org/2000/svg" xmlns:xlink="http://www.w3.org/1999/xlink" version="1.1" id="Capa_1" x="0px" y="0px" viewBox="0 0 612.002 612.002" style="enable-background:new 0 0 612.002 612.002;" xml:space="preserve" width="512px" height="512px"><g><g>
	<g>
		<path d="M584.284,0H27.718c-9,0-16.299,7.3-16.299,16.301v243.649c0,9.004,7.298,16.301,16.299,16.301h556.565    c9,0,16.299-7.297,16.299-16.301V16.301C600.584,7.3,593.286,0,584.284,0z M366.305,105.033H245.697    c-13.502,0-24.449-10.945-24.449-24.447s10.947-24.447,24.449-24.447h120.608c13.503,0,24.447,10.945,24.447,24.447    S379.808,105.033,366.305,105.033z" data-original="#000000" class="active-path" data-old_color="#000000" fill="#FFFFFF"/>
		<path d="M584.284,335.75H27.718c-9,0-16.299,7.298-16.299,16.302v243.649c0,9.002,7.298,16.301,16.299,16.301h556.565    c9,0,16.299-7.298,16.299-16.3V352.052C600.584,343.048,593.286,335.75,584.284,335.75z M366.305,440.783H245.697    c-13.502,0-24.449-10.945-24.449-24.447s10.947-24.447,24.449-24.447h120.608c13.503,0,24.447,10.945,24.447,24.447    S379.808,440.783,366.305,440.783z" data-original="#000000" class="active-path" data-old_color="#000000" fill="#FFFFFF"/>
	</g>
</g></g> </svg>
