<svg width="512" height="512" xmlns="http://www.w3.org/2000/svg" preserveAspectRatio="xMidYMid meet">

 <g>
  <title>background</title>
  <rect fill="none" id="canvas_background" height="483.174107" width="483.174107" y="-1" x="-1"/>
 </g>
 <g>
  <title>Layer 1</title>
  <path fill="#ffffff" id="svg_2" d="m286.300004,1.999992c-4,1 -8.3,2.5 -9.5,3.2c-1.3,0.6 -50.200001,21.1 -108.800002,45.400001l-106.500002,44.200001l-0.3,178.600003l-0.2,178.600003l94.800001,0l94.800001,0l6,9.7c11.6,19 31.3,35.400001 51.700001,43.100001c14.5,5.4 21.4,6.6 38.200001,6.6c12.5,0 16.5,-0.4 23.9,-2.3c39.100001,-10.2 66.900001,-38.000001 77.800001,-78.100001c3.2,-11.5 3.1,-36.200001 -0.1,-48.400001c-10.2,-39.200001 -39.300001,-68.200001 -77.900001,-77.700001l-9.2,-2.2l0,-124.700002c0,-120.900002 -0.1,-124.900002 -2,-132.400002c-1.1,-4.3 -3.4,-10.5 -5.2,-13.9c-4.2,-8.1 -16.4,-20.3 -24.5,-24.5c-13.2,-6.9 -29.1,-8.8 -43.000001,-5.2zm28.1,31.4c6.2,3.1 10.9,8 14,14.5c2.1,4.6 2.1,4.9 2.4,129.700002l0.2,125.100002l-9.1,2.2c-38.700001,9.5 -67.800001,38.500001 -78.000001,77.700001c-1.9,7.4 -2.3,11.5 -2.4,24.1l0,15.3l-75.200001,0l-75.300001,0l0,-151.000002l0,-151.000002l105.000002,0l105.000002,0l0,-14.8l0,-14.8l-5.8,-1.2c-7.2,-1.5 -14.2,-5.8 -18.2,-11.3c-14.9,-20.7 0.5,-49.200001 25.8,-47.500001c4,0.2 8.1,1.3 11.6,3zm-73.400001,26.4c0,7.7 2.8,19.9 6,26.1l2,4.1l-48.200001,-0.1c-35.300001,0 -47.700001,-0.3 -46.100001,-1.1c3.5,-1.7 84.700001,-35.600001 85.600001,-35.700001c0.4,-0.1 0.7,3 0.7,6.7zm119.700002,273.800004c15,3.1 27.5,9.9 38.200001,20.7c9.8,10 16.2,20.9 19.8,34.100001c2.3,8.4 2.3,28.8 0,37.200001c-7.7,28 -30,49.000001 -57.900001,54.800001c-51.900001,10.7 -98.900001,-36.200001 -88.200001,-88.200001c8.3,-40.400001 48.100001,-66.900001 88.100001,-58.600001z"/>
  <path fill="#ffffff" id="svg_3" d="m119.000002,164.999995l0,15l90.000001,0l90.000001,0l0,-15l0,-15l-90.000001,0l-90.000001,0l0,15z"/>
  <path fill="#ffffff" id="svg_4" d="m119.000002,224.999996l0,15l90.000001,0l90.000001,0l0,-15l0,-15l-90.000001,0l-90.000001,0l0,15z"/>
  <path fill="#ffffff" id="svg_5" d="m119.000002,284.999997l0,15l90.000001,0l90.000001,0l0,-15l0,-15l-90.000001,0l-90.000001,0l0,15z"/>
  <path fill="#ffffff" id="svg_6" d="m331.000005,391.999998l0,30l30,0l30,0l0,-15l0,-15l-15,0l-15,0l0,-15l0,-15l-15,0l-15,0l0,30z"/>
 </g>
</svg>