<svg xmlns="http://www.w3.org/2000/svg" width="238.289" height="39.729" viewBox="0 0 238.289 39.729"><defs><style>.a{fill:#fff;}.b{fill:#dff1ff;}.c{fill:#f6770d;}.d{fill:#2880c5;}</style></defs><g transform="translate(-74.865 -23.054)"><g transform="translate(74.865 23.054)"><rect class="a" width="39.73" height="39.73" rx="5" transform="translate(0)"/><path class="b" d="M34.57,0a5.16,5.16,0,0,1,5.16,5.16V34.57a5.16,5.16,0,0,1-5.16,5.16H5.16A5.16,5.16,0,0,1,0,34.57,48.065,48.065,0,0,0,23.476,21.5C33.725,10.838,34.57,0,34.57,0Z" transform="translate(0)"/><g transform="translate(5.676 12.383)"><path class="c" d="M203.506,427.48c-4.881,0-8.106,3.328-8.106,7.466a7.5,7.5,0,0,0,7.492,7.5c.1,0,.191,0,.289-.005l.212-.015a7.445,7.445,0,0,0,5.557-3.075h-.408c1.9-3.276,3.7-6.383,4.061-7a3.845,3.845,0,0,1,.573-.619l.005-.01a3.634,3.634,0,0,1,.387-.31c1.171-2.028,2.141-3.7,2.26-3.906.005-.01.005-.01.005-.015l.005-.005Zm2.9,10.1a3.847,3.847,0,0,1-.573.619c0,.005-.005.005-.005.01a3.631,3.631,0,0,1-.387.31,4.341,4.341,0,0,1-2.554.831,4.4,4.4,0,0,1-4.4-4.4c0-2.616,2.012-4.37,5.01-4.37h6.966C208.573,433.852,206.772,436.958,206.411,437.577Z" transform="translate(-195.4 -427.48)"/><path class="d" d="M223.416,427.48c-.1,0-.191,0-.289.005l-.212.015a7.445,7.445,0,0,0-5.557,3.075.586.586,0,0,0-.052.067c-.021.026-2.425,4.185-4.381,7.554,0,.005-.005.005-.005.01-.062.1-.119.206-.181.31-1.171,2.028-2.141,3.7-2.26,3.906-.005.01-.005.01-.005.015l-.005.005H222.8c4.881,0,8.106-3.328,8.106-7.466A7.5,7.5,0,0,0,223.416,427.48Zm-.614,11.867h-6.966c1.9-3.276,3.7-6.383,4.061-7a3.844,3.844,0,0,1,.573-.619l.005-.01a3.634,3.634,0,0,1,.387-.31,4.341,4.341,0,0,1,2.554-.831,4.4,4.4,0,0,1,4.4,4.4C227.812,437.593,225.8,439.347,222.8,439.347Z" transform="translate(-202.694 -427.48)"/></g></g><g transform="translate(130 27.213)"><path class="a" d="M277.671,442.965a9.816,9.816,0,0,1-1.928,6.37,6.317,6.317,0,0,1-5.174,2.378,6.415,6.415,0,0,1-4.819-1.861v8.158h-4.108V434.187h3.787l.169,1.749a6.2,6.2,0,0,1,4.921-2.067,6.388,6.388,0,0,1,5.25,2.345,10.071,10.071,0,0,1,1.9,6.514Zm-4.093-.334a6.863,6.863,0,0,0-1.089-4.088,3.62,3.62,0,0,0-3.121-1.511,3.826,3.826,0,0,0-3.618,1.956v7.635a3.86,3.86,0,0,0,3.652,2,3.611,3.611,0,0,0,3.069-1.488A7.525,7.525,0,0,0,273.578,442.631Z" transform="translate(-261.642 -426.966)"/><path class="a" d="M282.35,437.072a6.607,6.607,0,0,1,5.09-2.194q5.851,0,5.935,6.281V452.4h-4.109V441.3a3.269,3.269,0,0,0-.82-2.521,3.488,3.488,0,0,0-2.409-.74,4,4,0,0,0-3.686,2.069V452.4h-4.108V427.976h4.108Z" transform="translate(-258.798 -427.976)"/><path class="a" d="M305.723,451.394a5.7,5.7,0,0,1-.474-1.606,6.6,6.6,0,0,1-4.8,1.925,6.706,6.706,0,0,1-4.5-1.479,4.616,4.616,0,0,1-1.742-3.658,4.794,4.794,0,0,1,2.173-4.223,11.046,11.046,0,0,1,6.214-1.471h2.52v-1.128a2.906,2.906,0,0,0-.8-2.14,3.266,3.266,0,0,0-2.418-.8,3.776,3.776,0,0,0-2.3.659,2,2,0,0,0-.9,1.677H294.6a4.128,4.128,0,0,1,1-2.647,6.611,6.611,0,0,1,2.714-1.933,10.06,10.06,0,0,1,3.829-.7,8,8,0,0,1,5.124,1.518,5.278,5.278,0,0,1,1.961,4.271v7.76a8.355,8.355,0,0,0,.693,3.707v.269Zm-4.514-2.783a4.9,4.9,0,0,0,2.291-.558,3.853,3.853,0,0,0,1.614-1.493v-3.245H302.9a6.364,6.364,0,0,0-3.432.747,2.382,2.382,0,0,0-1.15,2.115,2.2,2.2,0,0,0,.786,1.773A3.169,3.169,0,0,0,301.208,448.611Z" transform="translate(-256.062 -426.966)"/><path class="a" d="M320.28,437.716a10.859,10.859,0,0,0-1.674-.126q-2.824,0-3.8,2.036v11.769h-4.109V434.187h3.923l.1,1.923a4.69,4.69,0,0,1,4.126-2.242,4.094,4.094,0,0,1,1.455.223Z" transform="translate(-253.237 -426.966)"/><path class="a" d="M324.957,434.187l.117,1.8a6.783,6.783,0,0,1,5.276-2.116q3.669,0,5.022,2.64a6.629,6.629,0,0,1,5.614-2.64,5.9,5.9,0,0,1,4.506,1.574,6.666,6.666,0,0,1,1.513,4.644v11.307H342.9V440.2a3.292,3.292,0,0,0-.76-2.4,3.463,3.463,0,0,0-2.52-.765,3.565,3.565,0,0,0-2.291.709,3.7,3.7,0,0,0-1.243,1.853l.016,11.8H331.99V440.07q-.083-3.036-3.3-3.038a3.659,3.659,0,0,0-3.5,1.893v12.469h-4.109V434.187Z" transform="translate(-251.456 -426.966)"/><path class="a" d="M357.833,451.394a5.658,5.658,0,0,1-.473-1.606,6.6,6.6,0,0,1-4.8,1.925,6.7,6.7,0,0,1-4.5-1.479,4.614,4.614,0,0,1-1.743-3.658,4.789,4.789,0,0,1,2.174-4.223,11.042,11.042,0,0,1,6.213-1.471h2.52v-1.128a2.91,2.91,0,0,0-.794-2.14,3.268,3.268,0,0,0-2.418-.8,3.774,3.774,0,0,0-2.3.659,2,2,0,0,0-.9,1.677h-4.109a4.136,4.136,0,0,1,1-2.647,6.618,6.618,0,0,1,2.714-1.933,10.066,10.066,0,0,1,3.83-.7,8.009,8.009,0,0,1,5.123,1.518,5.281,5.281,0,0,1,1.961,4.271v7.76a8.357,8.357,0,0,0,.692,3.707v.269Zm-4.514-2.783a4.895,4.895,0,0,0,2.291-.558,3.854,3.854,0,0,0,1.614-1.493v-3.245h-2.215a6.363,6.363,0,0,0-3.432.747,2.382,2.382,0,0,0-1.15,2.115,2.194,2.194,0,0,0,.787,1.773A3.163,3.163,0,0,0,353.318,448.611Z" transform="translate(-247.133 -426.966)"/><path class="a" d="M372.389,437.716a10.843,10.843,0,0,0-1.673-.126q-2.825,0-3.806,2.036v11.769H362.8V434.187h3.922l.1,1.923a4.692,4.692,0,0,1,4.127-2.242,4.082,4.082,0,0,1,1.454.223Z" transform="translate(-244.308 -426.966)"/><path class="a" d="M383.787,451.394a5.661,5.661,0,0,1-.473-1.606,6.6,6.6,0,0,1-4.8,1.925,6.7,6.7,0,0,1-4.5-1.479,4.617,4.617,0,0,1-1.743-3.658,4.792,4.792,0,0,1,2.174-4.223,11.043,11.043,0,0,1,6.214-1.471h2.518v-1.128a2.91,2.91,0,0,0-.794-2.14,3.268,3.268,0,0,0-2.418-.8,3.774,3.774,0,0,0-2.3.659,2,2,0,0,0-.9,1.677H372.66a4.136,4.136,0,0,1,1-2.647,6.619,6.619,0,0,1,2.714-1.933,10.066,10.066,0,0,1,3.83-.7,8.009,8.009,0,0,1,5.124,1.518,5.281,5.281,0,0,1,1.961,4.271v7.76a8.339,8.339,0,0,0,.693,3.707v.269Zm-4.514-2.783a4.895,4.895,0,0,0,2.291-.558,3.854,3.854,0,0,0,1.614-1.493v-3.245h-2.215a6.367,6.367,0,0,0-3.432.747,2.382,2.382,0,0,0-1.15,2.115,2.194,2.194,0,0,0,.787,1.773A3.163,3.163,0,0,0,379.272,448.611Z" transform="translate(-242.685 -426.966)"/><path class="a" d="M396.393,448.627a3.86,3.86,0,0,0,2.552-.843,2.82,2.82,0,0,0,1.082-2.083H403.9a5.451,5.451,0,0,1-1.066,3,6.87,6.87,0,0,1-2.706,2.2,8.472,8.472,0,0,1-3.685.812,8.05,8.05,0,0,1-6.088-2.339,8.924,8.924,0,0,1-2.249-6.457v-.4a8.781,8.781,0,0,1,2.233-6.29,7.972,7.972,0,0,1,6.086-2.361,7.8,7.8,0,0,1,5.318,1.79,6.239,6.239,0,0,1,2.156,4.7h-3.872a3.441,3.441,0,0,0-1.074-2.433,3.571,3.571,0,0,0-2.561-.954,3.705,3.705,0,0,0-3.078,1.359,6.624,6.624,0,0,0-1.1,4.127v.621a6.731,6.731,0,0,0,1.073,4.175A3.7,3.7,0,0,0,396.393,448.627Z" transform="translate(-239.972 -426.966)"/><path class="a" d="M410.18,445.024l-1.825,1.765V452.4h-4.109V427.976h4.109v14.09l1.285-1.511L414.7,435.2h4.937l-6.8,7.172L420.36,452.4h-4.752Z" transform="translate(-237.206 -427.976)"/></g></g></svg>