<svg width="512" height="512" xmlns="http://www.w3.org/2000/svg" preserveAspectRatio="xMidYMid meet">
 <metadata>Created by potrace 1.16, written by Peter Selinger 2001-2019</metadata>

 <g>
  <title>background</title>
  <rect fill="none" id="canvas_background" height="396.608754" width="399.636443" y="-1" x="-1"/>
 </g>
 <g>
  <title>Layer 1</title>
  <path fill="#ffffff" stroke="#ffffff" id="svg_2" d="m91.200001,33.699993c-1.8,0.9 -4.5,3.2 -6,5.1l-2.7,3.5l-0.5,40.300001l-0.5,40.300001l-37.500001,25.6c-20.6,14.1 -39.000001,27.2 -40.700001,29.1l-3.3,3.4l0,143.000002c0,158.100002 -0.5,147.300002 6.6,152.600002l3.7,2.9l247.500004,0.3c274.800004,0.2 251.100004,0.8 253.200004,-6.5c0.8,-2.7 1,-47.300001 0.8,-150.300002l-0.3,-146.400002l-37.700001,-26.6l-37.600001,-26.5l-0.4,-40.600001l-0.3,-40.600001l-2.7,-3.5c-5.6,-7.4 9,-6.8 -174.000003,-6.8c-150.100002,0 -164.600002,0.2 -167.600002,1.7zm319.600005,116.000002l-0.3,93.600001l-75.400001,56.900001c-41.500001,31.3 -76.000001,56.700001 -76.600001,56.600001c-0.6,-0.2 -35.200001,-25.9 -76.800001,-57.300001l-75.600001,-57.000001l-0.1,-93.300001l0,-93.200001l152.500002,0l152.500002,0l-0.2,93.700001zm-328.800005,38.900001l0,35.600001l-3.8,-2.9c-14.8,-10.9 -45.200001,-34.700001 -44.900001,-34.900001c1.2,-1.2 47.300001,-33.3 48.000001,-33.3c0.4,-0.1 0.7,15.9 0.7,35.500001zm381.000006,-17.1c11.8,8.1 21.6,14.8 21.7,14.9c0.3,0.2 -45.200001,34.600001 -47.400001,36.000001c-1,0.6 -1.3,-6.6 -1.3,-34.400001l0,-35.100001l2.8,1.9c1.5,1.1 12.4,8.6 24.2,16.7zm-355.700005,103.400002c43.900001,33.2 79.400001,60.700001 79.000001,61.100001c-1.5,1.3 -161.400002,109.000002 -161.900002,109.000002c-0.2,0 -0.4,-52.500001 -0.4,-116.600002c0,-112.100002 0.1,-116.500002 1.8,-115.200002c1,0.7 37.700001,28.5 81.500001,61.700001zm380.500006,108.600002l-0.3,57.600001l-79.000001,-53.000001c-43.400001,-29.2 -79.100001,-53.400001 -79.200001,-53.800001c-0.1,-0.4 35.400001,-28.1 79.000001,-61.500001l79.200001,-60.600001l0.3,56.800001c0.1,31.3 0.1,82.800001 0,114.500002zm-101.700002,19.2l78.000001,52.800001l-102.600002,0.3c-56.400001,0.1 -148.700002,0.1 -205.100003,0l-102.600002,-0.3l75.700001,-51.000001c41.600001,-28.1 76.500001,-51.400001 77.500001,-51.900001c1.4,-0.6 5.8,2.3 20.6,13.6c25.5,19.4 25,19.1 29.8,19.2c3.8,0.1 5.6,-1.1 27.1,-17.7c12.7,-9.7 23.1,-17.7 23.3,-17.7c0.2,0 35.400001,23.7 78.300001,52.700001z"/>
  <path fill="#ffffff" stroke="#ffffff" id="svg_3" d="m161.300002,109.099994c-8.3,2.4 -11.3,13.7 -5.3,19.8c1.7,1.7 4.5,3.3 6.3,3.6c1.8,0.3 15.9,0.5 31.4,0.3c26.8,-0.3 28.3,-0.4 31,-2.4c6.5,-4.9 6.6,-14.9 0,-19.6c-3.1,-2.3 -3.7,-2.3 -31.7,-2.5c-15.7,-0.1 -29.9,0.2 -31.7,0.8z"/>
  <path fill="#ffffff" stroke="#ffffff" id="svg_4" d="m162.000002,161.899995c-5.9,1.5 -9,5.6 -9,12.2c0,6.1 3.9,10.5 10.3,11.4c2.3,0.3 47.000001,0.5 99.200001,0.3c103.200002,-0.3 97.400001,0 100.900002,-5.9c4,-6.8 0.4,-15.8 -7.2,-17.9c-4.1,-1.1 -189.800003,-1.2 -194.200003,-0.1z"/>
  <path fill="#ffffff" stroke="#ffffff" id="svg_5" d="m162.000002,214.899996c-5.9,1.5 -9,5.6 -9,12.2c0,6.1 3.9,10.5 10.3,11.4c2.3,0.3 47.000001,0.5 99.200001,0.3c103.200002,-0.3 97.400001,0 100.900002,-5.9c4,-6.8 0.4,-15.8 -7.2,-17.9c-4.1,-1.1 -189.800003,-1.2 -194.200003,-0.1z"/>
 </g>
</svg>