<svg width="512" height="512" xmlns="http://www.w3.org/2000/svg" preserveAspectRatio="xMidYMid meet">
 <metadata>Created by potrace 1.16, written by Peter Selinger 2001-2019</metadata>

 <g>
  <title>background</title>
  <rect fill="none" id="canvas_background" height="402" width="582" y="-1" x="-1"/>
 </g>
 <g>
  <title>Layer 1</title>
  <path stroke="#ffffff" fill="#ffffff" id="svg_2" d="m0,255.999996l0,256.000004l191.300003,0c213.300003,0 199.300003,0.4 221.800003,-7c22.5,-7.4 40.400001,-18.4 56.900001,-35.000001c20.3,-20.3 33.700001,-45.100001 39.700001,-73.000001c1.4,-6.6 1.8,-13 1.8,-29c0,-22.6 -1.1,-30 -6.7,-46.500001c-12.1,-35.500001 -38.700001,-66.000001 -72.300001,-82.700001c-13.8,-7 -35.800001,-13.7 -44.700001,-13.8l-2.8,0l0,-67.800001l0,-67.700001l-44.800001,-44.800001l-44.700001,-44.700001l-147.800002,0l-147.700002,0l0,256.000004zm256.000004,-176.000003l0,48.000001l48.000001,0l48.000001,0l-0.2,48.200001l-0.3,48.200001l-8,1.3c-44.000001,7.4 -82.700001,35.600001 -103.400002,75.400001c-2.7,5.2 -5.6,11.5 -6.6,14.1l-1.8,4.8l-72.600001,0.2l-72.600001,0.3l-5.5,2.6c-6.4,3 -11.2,7.4 -14.3,13.3c-2.2,4.1 -2.2,4.6 -2.5,57.800001l-0.3,53.800001l91.900001,0l91.900001,0l3.9,5.7c2.1,3.2 8.5,10.4 14,16l10.1,10.3l-121.300002,0l-121.400002,0l0,-224.000003l0,-224.000003l111.500002,0l111.500002,0l0,48.000001zm60.500001,-12l28,28l-28.3,0l-28.2,0l0,-28c0,-15.4 0.1,-28 0.3,-28c0.1,0 12.8,12.6 28.2,28zm80.300001,192.400003c41.100001,11.4 71.700001,44.200001 80.300001,85.900001c2.7,13.2 2.3,35.600001 -1,48.300001c-10,39.700001 -42.000001,71.500001 -82.000001,81.700001c-12.5,3.2 -39.700001,3.2 -52.200001,0c-39.600001,-10 -70.700001,-40.500001 -81.700001,-80.000001c-2.5,-9 -2.7,-11.2 -2.7,-28.3c0,-17.1 0.2,-19.3 2.7,-28.3c11.9,-42.500001 46.200001,-73.800001 89.700001,-81.800001c2.5,-0.4 12,-0.6 21.1,-0.4c14,0.3 17.9,0.7 25.8,2.9z"/>
  <path stroke="#ffffff" fill="#ffffff" id="svg_3" d="m174.500003,161.899995c-21.8,6.3 -39.900001,24.9 -45.000001,46.200001c-1.9,8.2 -1.9,23.6 0,31.8c5.2,21.9 24.7,41.400001 46.600001,46.600001c8.2,1.9 23.6,1.9 31.8,0c21.8,-5.2 40.800001,-24.1 46.600001,-46.400001c2.1,-8.3 2.1,-23.8 0,-32.1c-5.9,-22.6 -23.8,-40.600001 -46.200001,-46.400001c-8.3,-2.2 -25.9,-2 -33.800001,0.3z"/>
  <path stroke="#ffffff" fill="#ffffff" id="svg_4" d="m359.700005,326.799997c-21.8,21.8 -39.700001,40.200001 -39.700001,40.700001c0,0.6 10.8,11.8 24,25l24,24l40.000001,-40.000001c22,-22 40.000001,-40.400001 40.000001,-41.000001c0,-1 -47.000001,-48.500001 -48.000001,-48.500001c-0.3,0 -18.4,17.9 -40.300001,39.800001z"/>
  <path stroke="#ffffff" fill="#ffffff" id="svg_5" d="m304.000005,407.999998l0,24l24.2,0l24.3,0l-24,-24c-13.2,-13.2 -24.1,-24 -24.2,-24c-0.2,0 -0.3,10.8 -0.3,24z"/>
 </g>
</svg>