<?xml version="1.0" encoding="utf-8"?>
<!-- Generator: Adobe Illustrator 23.0.2, SVG Export Plug-In . SVG Version: 6.00 Build 0)  -->
<svg version="1.1" id="Layer_1" xmlns="http://www.w3.org/2000/svg" xmlns:xlink="http://www.w3.org/1999/xlink" x="0px" y="0px"
	 viewBox="0 0 100.012 237.1826" enable-background="new 0 0 100.012 237.1826" xml:space="preserve" fill="#FFFFFF">
<g>
	<g>
		<path d="M0.591,138.8928c0.2485,4.252,3.7739,7.5332,7.979,7.5327c0.1572,0,0.3159-0.0044,0.4746-0.0137
			c4.4106-0.2578,7.7769-4.043,7.519-8.4536c-0.061-1.0422-0.1151-2.0655-0.1655-3.079H0.3779
			C0.4411,136.2024,0.5118,137.5396,0.591,138.8928z" fill="#FFFFFF"/>
		<path d="M83.4484,137.9583c-0.2578,4.4106,3.1084,8.1958,7.519,8.4536c0.1592,0.0093,0.3174,0.0137,0.4746,0.0137
			c4.2046,0,7.7305-3.2813,7.979-7.5327c0.0792-1.3533,0.1498-2.6904,0.2131-4.0135H83.6139
			C83.5634,135.8928,83.5094,136.9161,83.4484,137.9583z" fill="#FFFFFF"/>
		<path d="M52.3233,224.8193c0,6.8301,5.5371,12.3633,12.3633,12.3633c6.8281,0,12.3652-5.5331,12.3652-12.3633V74.7927
			c4.175,8.6835,7.921,25.601,6.7239,56.4199h16.0149c1.4178-37.9217-3.9807-62.8811-16.0752-74.2446
			c-5.5978-5.2606-11.0673-6.1739-13.8889-6.2444c-0.1672-0.0108-0.3333-0.0254-0.5032-0.0254H30.6886
			c-0.1604,0-0.3171,0.0143-0.475,0.024c-2.8122,0.0642-8.2997,0.9659-13.918,6.2449C4.2019,68.3305-1.1966,93.29,0.2213,131.2126
			h16.0149c-1.1973-30.8207,2.549-47.7385,6.7238-56.4216v150.0283c0,6.8301,5.5371,12.3633,12.3633,12.3633
			c6.8281,0,12.3652-5.5331,12.3652-12.3633v-90.2715h4.6348V224.8193z M60.1935,71.6709h12.3334v4H60.1935V71.6709z
			 M46.2043,58.8818h3.8007h3.7989l1.9004,7.5l-0.2887,0.4557c-1.566,1.3057-3.4844,1.9604-5.4125,1.9622
			c-1.9279-0.0018-3.843-0.655-5.4077-1.9578l-0.2914-0.4601L46.2043,58.8818z M50.005,123.3818l-9.5-12l5.4715-40.3214
			c1.2974,0.4862,2.662,0.7402,4.0266,0.7394h0.002c0,0,0.004,0,0.0059,0c1.3631,0,2.7254-0.2543,4.0208-0.7404l5.4734,40.3224
			L50.005,123.3818z"/>
		<path d="M50.005,45c12.4278,0,22.5-10.0733,22.5-22.5c0-12.4268-10.0722-22.5-22.5-22.5c-12.4257,0-22.5,10.0732-22.5,22.5
			C27.505,34.9267,37.5793,45,50.005,45z M64.0401,31.132c-2.9087,4.7114-8.1038,7.8682-14.0352,7.8682
			s-11.1265-3.1567-14.0352-7.8682H64.0401z" fill="#FFFFFF"/>
	</g>
</g>
</svg>
