<svg width="512" height="512" xmlns="http://www.w3.org/2000/svg" preserveAspectRatio="xMidYMid meet">
 <metadata>Created by potrace 1.16, written by Peter Selinger 2001-2019</metadata>

 <g>
  <title>background</title>
  <rect fill="none" id="canvas_background" height="402" width="582" y="-1" x="-1"/>
 </g>
 <g>
  <title>Layer 1</title>
  <path stroke="#ffffff" stroke-opacity="0" fill="#ffffff" id="svg_2" d="m116.700002,59.699993l-54.700001,59.800001l0,66.200001l0,66.300001l10,0l10,0l0,-66.000001l0,-66.000001l33.4,0c37.100001,0 38.500001,-0.2 46.200001,-6.5c2.8,-2.3 5.5,-6 7.6,-10.3l3.3,-6.7l0.3,-37.700001l0.3,-37.800001l122.800002,0l122.800002,0l3.4,2.3c1.9,1.2 4.4,4.2 5.7,6.7l2.2,4.4l0,108.800002l0,108.800002l9.5,0l9.5,0l0,-114.300002c0,-128.000002 0.5,-119.500002 -7.3,-128.300002c-2.3,-2.6 -6.3,-5.7 -9.2,-7l-5,-2.4l-128.100002,0l-128.100002,0l-54.600001,59.700001z"/>
  <path stroke="#ffffff" stroke-opacity="0" fill="#ffffff" id="svg_3" d="m12,274.099996c-5.6,2.5 -7.7,4.4 -10.1,9.2c-1.9,3.5 -1.9,6 -1.7,49.100001l0.3,45.400001l3.1,3.9c1.6,2.1 5.2,4.9 8,6.3l4.9,2.5l239.500004,0l239.500004,0l4.9,-2.5c2.8,-1.4 6.4,-4.2 8,-6.3l3.1,-3.9l0.2,-45.600001l0.3,-45.700001l-2.3,-4c-1.3,-2.3 -4.3,-5.2 -7.1,-7l-4.9,-3l-240.600004,-0.2c-240.100004,-0.3 -240.600004,-0.3 -245.100004,1.8zm159.900002,24.5c2,2.5 2.1,3.9 2.1,29l0,26.4l13.9,0c15.6,0 19.8,1 20.8,4.8c0.4,1.9 0.1,3 -1.7,4.4c-2.2,1.8 -4,1.9 -22.8,1.6c-18.8,-0.3 -20.5,-0.4 -21.8,-2.2c-1.1,-1.6 -1.4,-7.7 -1.4,-32.3c0,-29 0.1,-30.4 2,-32.3c2.8,-2.8 6.4,-2.5 8.9,0.6zm88.600001,0.8c11.3,5.6 16.8,16 16.8,31.6c0,15.6 -5.5,26 -16.7,31.5c-10.6,5.2 -26.6,4.2 -35.800001,-2.2c-17.3,-11.9 -18,-45.100001 -1.3,-57.900001c6.3,-4.8 12.8,-6.5 22.7,-6.1c6.9,0.4 9.9,1 14.3,3.1zm78.100001,-0.1c5.6,2.8 10,7.4 11,11.3c2.3,9 -6.6,11.5 -12,3.4c-3.9,-5.9 -7.9,-8 -15.1,-8c-14.8,0.1 -22.7,10.4 -21.2,27.9c0.7,8.9 3.7,15.2 8.9,18.8c3.8,2.5 4.9,2.8 12.7,2.8c6.7,0 9.6,-0.5 13.4,-2.2l4.7,-2.2l0,-6l0,-6.1l-7.9,0c-5.9,0 -8.4,-0.4 -9.5,-1.6c-2,-2 -2,-3.3 0.1,-5.6c1.4,-1.5 3.2,-1.8 13.3,-1.8c15.3,0 15.5,0.2 15.5,14.5c0,11.9 -0.3,12.6 -8.9,16.6c-12.9,6.1 -26.9,6.5 -38.000001,1c-7.1,-3.5 -11.2,-7.9 -14.9,-15.8c-3.2,-7 -3.2,-23.6 0.1,-30.7c6.4,-13.9 17.1,-20 34.200001,-19.2c6.7,0.2 9.6,0.9 13.6,2.9z"/>
  <path stroke="#ffffff" stroke-opacity="0" fill="#ffffff" id="svg_4" d="m237.000004,307.099997c-7.6,3.1 -12.3,12.3 -12.3,23.9c0,11.6 4.1,19.6 11.7,23.1c10.9,4.9 23.4,-0.9 26.8,-12.4c2.1,-7.2 1.5,-18.7 -1.3,-24.3c-3.7,-7.3 -8.4,-10.5 -16.1,-11c-3.5,-0.2 -7.4,0.1 -8.8,0.7z"/>
  <path stroke="#ffffff" stroke-opacity="0" fill="#ffffff" id="svg_5" d="m65.700001,402.599998c-1.6,1.6 -2.8,4.2 -3.2,6.7c-0.4,2.3 -0.5,21.1 -0.3,41.700001c0.4,32.9 0.6,38.100001 2.2,42.200001c2.4,6.4 9,13.6 15.1,16.4l5,2.4l171.500003,0l171.500003,0l5,-2.4c6.1,-2.8 12.7,-10 15.1,-16.4c1.6,-4.1 1.8,-9.3 2.2,-42.200001c0.2,-20.6 0.1,-39.400001 -0.3,-41.700001c-1.3,-8.6 -9.9,-12.3 -16.2,-6.9l-2.8,2.4l-0.5,38.000001c-0.5,36.600001 -0.6,38.200001 -2.6,40.900001c-1.1,1.5 -3.6,3.8 -5.4,5l-3.3,2.3l-162.700002,0l-162.700002,0l-3.3,-2.3c-1.8,-1.2 -4.3,-3.5 -5.4,-5c-2,-2.7 -2.1,-4.3 -2.6,-40.900001l-0.5,-38.000001l-2.8,-2.4c-3.9,-3.4 -9.6,-3.3 -13,0.2z"/>
 </g>
</svg>