<svg width="100" height="100" xmlns="http://www.w3.org/2000/svg" preserveAspectRatio="xMidYMid meet">

 <g>
  <title>background</title>
  <rect fill="none" id="canvas_background" height="22.064197" width="22.064197" y="-1" x="-1"/>
 </g>
 <g>
  <title>Layer 1</title>
  <path stroke="#ffffff" stroke-opacity="0" fill="#ffffff" id="svg_2" d="m12,49.999999l0,46.000001l38.000001,0l38.000001,0l0,-46.000001l0,-46.000001l-38.000001,0l-38.000001,0l0,46.000001zm72.000001,0l0,42.000001l-34.000001,0l-34.000001,0l0,-42.000001l0,-42.000001l34.000001,0l34.000001,0l0,42.000001z"/>
  <path stroke="#ffffff" stroke-opacity="0" fill="#ffffff" id="svg_3" d="m26,25.999999c0,1.9 0.7,2 24,2c23.3,0 24,-0.1 24,-2c0,-1.9 -0.7,-2 -24,-2c-23.3,0 -24,0.1 -24,2z"/>
  <path stroke="#ffffff" stroke-opacity="0" fill="#ffffff" id="svg_4" d="m26.5,37.299999c-0.3,0.7 -0.4,9.1 -0.3,18.7l0.3,17.5l23.5,0l23.5,0l0,-18.5l0,-18.5l-23.3,-0.3c-18.4,-0.2 -23.4,0 -23.7,1.1zm7.5,6.7c0,3.3 -0.3,4 -2,4c-1.7,0 -2,-0.7 -2,-4c0,-3.3 0.3,-4 2,-4c1.7,0 2,0.7 2,4zm26,0l0,4l-11,0l-11,0l0,-4l0,-4l11,0l11,0l0,4zm10,0c0,3.8 -0.2,4 -3,4c-2.8,0 -3,-0.2 -3,-4c0,-3.8 0.2,-4 3,-4c2.8,0 3,0.2 3,4zm-36.000001,12c0,3.3 -0.3,4 -2,4c-1.7,0 -2,-0.7 -2,-4c0,-3.3 0.3,-4 2,-4c1.7,0 2,0.7 2,4zm26,0l0,4l-11,0l-11,0l0,-4l0,-4l11,0l11,0l0,4zm10,0c0,3.8 -0.2,4 -3,4c-2.8,0 -3,-0.2 -3,-4c0,-3.8 0.2,-4 3,-4c2.8,0 3,0.2 3,4zm-36.000001,11c0,2.3 -0.4,3 -2,3c-1.6,0 -2,-0.7 -2,-3c0,-2.3 0.4,-3 2,-3c1.6,0 2,0.7 2,3zm26,0l0,3l-11,0l-11,0l0,-3l0,-3l11,0l11,0l0,3zm10,0c0,2.7 -0.3,3 -3,3c-2.7,0 -3,-0.3 -3,-3c0,-2.7 0.3,-3 3,-3c2.7,0 3,0.3 3,3z"/>
  <path stroke="#ffffff" stroke-opacity="0" fill="#ffffff" id="svg_5" d="m50.000001,82c0,1.9 0.7,2 12,2c11.3,0 12,-0.1 12,-2c0,-1.9 -0.7,-2 -12,-2c-11.3,0 -12,0.1 -12,2z"/>
 </g>
</svg>