<svg width="64" height="64" xmlns="http://www.w3.org/2000/svg" preserveAspectRatio="xMidYMid meet">

 <g>
  <title>background</title>
  <rect fill="none" id="canvas_background" height="402" width="582" y="-1" x="-1"/>
 </g>
 <g>
  <title>Layer 1</title>
  <path stroke="#ffffff" stroke-opacity="0" fill="#ffffff" id="svg_2" d="m15.8,9.799999l-5.8,5.9l0.2,21.9l0.3,21.9l22.5,0l22.5,0l0,-27.5l0,-27.5l-16.9,-0.3l-16.9,-0.2l-5.9,5.8zm38.200001,22.2l0,26l-21,0l-21,0l0,-20l0,-19.9l5.8,-0.3l5.7,-0.3l0.3,-5.8l0.3,-5.7l14.9,0l15,0l0,26zm-32,-20.5l0,4.5l-4.7,0l-4.7,0l4.4,-4.5c2.4,-2.5 4.5,-4.5 4.7,-4.5c0.2,0 0.3,2 0.3,4.5z"/>
  <path stroke="#ffffff" stroke-opacity="0" fill="#ffffff" id="svg_3" d="m20,20.999999c0,0.6 3.7,1 9,1c5.3,0 9,-0.4 9,-1c0,-0.6 -3.7,-1 -9,-1c-5.3,0 -9,0.4 -9,1z"/>
  <path stroke="#ffffff" stroke-opacity="0" fill="#ffffff" id="svg_4" d="m40.000001,20.999999c0,0.5 1.4,1 3,1c1.7,0 3,-0.5 3,-1c0,-0.6 -1.3,-1 -3,-1c-1.6,0 -3,0.4 -3,1z"/>
  <path stroke="#ffffff" stroke-opacity="0" fill="#ffffff" id="svg_5" d="m20,33l0,7l13,0l13,0l0,-7l0,-7l-13,0l-13,0l0,7zm4,-3c0,1.1 -0.4,2 -1,2c-0.5,0 -1,-0.9 -1,-2c0,-1.1 0.5,-2 1,-2c0.6,0 1,0.9 1,2zm10,0c0,1.7 -0.7,2 -4,2c-3.3,0 -4,-0.3 -4,-2c0,-1.7 0.7,-2 4,-2c3.3,0 4,0.3 4,2zm10,0c0,1.7 -0.7,2 -4,2c-3.3,0 -4,-0.3 -4,-2c0,-1.7 0.7,-2 4,-2c3.3,0 4,0.3 4,2zm-20,6c0,1.1 -0.4,2 -1,2c-0.5,0 -1,-0.9 -1,-2c0,-1.1 0.5,-2 1,-2c0.6,0 1,0.9 1,2zm10,0c0,1.7 -0.7,2 -4,2c-3.3,0 -4,-0.3 -4,-2c0,-1.7 0.7,-2 4,-2c3.3,0 4,0.3 4,2zm10,0c0,1.7 -0.7,2 -4,2c-3.3,0 -4,-0.3 -4,-2c0,-1.7 0.7,-2 4,-2c3.3,0 4,0.3 4,2z"/>
  <path stroke="#ffffff" stroke-opacity="0" fill="#ffffff" id="svg_6" d="m36.000001,45c0,0.5 2.3,1 5,1c2.8,0 5,-0.5 5,-1c0,-0.6 -2.2,-1 -5,-1c-2.7,0 -5,0.4 -5,1z"/>
  <path stroke="#ffffff" stroke-opacity="0" fill="#ffffff" id="svg_7" d="m14,52c0,1.1 0.5,2 1,2c0.6,0 1,-0.9 1,-2c0,-1.1 -0.4,-2 -1,-2c-0.5,0 -1,0.9 -1,2z"/>
  <path stroke="#ffffff" stroke-opacity="0" fill="#ffffff" id="svg_8" d="m19,52c0,1.1 0.5,2 1,2c0.6,0 1,-0.9 1,-2c0,-1.1 -0.4,-2 -1,-2c-0.5,0 -1,0.9 -1,2z"/>
  <path stroke="#ffffff" stroke-opacity="0" fill="#ffffff" id="svg_9" d="m24,52c0,1.1 0.5,2 1,2c0.6,0 1,-0.9 1,-2c0,-1.1 -0.4,-2 -1,-2c-0.5,0 -1,0.9 -1,2z"/>
  <path stroke="#ffffff" stroke-opacity="0" fill="#ffffff" id="svg_10" d="m29,52c0,1.1 0.5,2 1,2c0.6,0 1,-0.9 1,-2c0,-1.1 -0.4,-2 -1,-2c-0.5,0 -1,0.9 -1,2z"/>
  <path stroke="#ffffff" stroke-opacity="0" fill="#ffffff" id="svg_11" d="m34.000001,52c0,1.1 0.5,2 1,2c0.6,0 1,-0.9 1,-2c0,-1.1 -0.4,-2 -1,-2c-0.5,0 -1,0.9 -1,2z"/>
  <path stroke="#ffffff" stroke-opacity="0" fill="#ffffff" id="svg_12" d="m39.000001,52c0,1.1 0.5,2 1,2c0.6,0 1,-0.9 1,-2c0,-1.1 -0.4,-2 -1,-2c-0.5,0 -1,0.9 -1,2z"/>
  <path stroke="#ffffff" stroke-opacity="0" fill="#ffffff" id="svg_13" d="m44.000001,52c0,1.1 0.5,2 1,2c0.6,0 1,-0.9 1,-2c0,-1.1 -0.4,-2 -1,-2c-0.5,0 -1,0.9 -1,2z"/>
  <path stroke="#ffffff" stroke-opacity="0" fill="#ffffff" id="svg_14" d="m49.000001,52c0,1.1 0.5,2 1,2c0.6,0 1,-0.9 1,-2c0,-1.1 -0.4,-2 -1,-2c-0.5,0 -1,0.9 -1,2z"/>
 </g>
</svg>