<?xml version="1.0" encoding="utf-8"?>
<!-- Generator: Adobe Illustrator 22.1.0, SVG Export Plug-In . SVG Version: 6.00 Build 0)  -->
<svg version="1.1" id="Layer_1" xmlns="http://www.w3.org/2000/svg" xmlns:xlink="http://www.w3.org/1999/xlink" x="0px" y="0px"
	 viewBox="0 0 75 75" style="enable-background:new 0 0 75 75;" xml:space="preserve">
<style type="text/css">
	.st0{fill:#FFCB23;}
	.st1{fill:none;stroke:#000000;stroke-miterlimit:10;}
	.st2{fill:#29ABE2;}
	.st3{fill:none;stroke:#000000;stroke-linecap:round;stroke-linejoin:round;stroke-miterlimit:10;}
	.st4{fill:#FFFFFF;}
</style>
<circle class="st0" cx="28" cy="23" r="16"/>
<path class="st1" d="M20,66.1V14.9c0-1.1,0.9-1.9,1.9-1.9h36.2c1.1,0,1.9,0.9,1.9,1.9v39.3L45.5,68H21.9C20.9,68,20,67.1,20,66.1z"
	/>
<path class="st2" d="M47.4,54.3H58V15H22v51h23.5v-9.8C45.5,55.1,46.4,54.3,47.4,54.3z"/>
<path class="st3" d="M45.5,68V56.2c0-1.1,0.9-1.9,1.9-1.9H60L45.5,68z"/>
<rect x="26" y="21.5" class="st4" width="28" height="1"/>
<rect x="26" y="28" class="st4" width="28" height="1"/>
<rect x="26" y="34.5" class="st4" width="28" height="1"/>
<rect x="26" y="41" class="st4" width="28" height="1"/>
<rect x="26" y="47.5" class="st4" width="21" height="1"/>
</svg>
