<svg xmlns="http://www.w3.org/2000/svg" width="32" height="32" viewBox="0 0 32 32"><defs><style>.a,.b{fill:#fff;}.a{opacity:0;}</style></defs><g transform="translate(-24 -445)"><rect class="a" width="32" height="32" transform="translate(24 445)"/><path class="b" d="M20.54,5.23,19.15,3.55A1.451,1.451,0,0,0,18,3H6a1.486,1.486,0,0,0-1.16.55L3.46,5.23A1.958,1.958,0,0,0,3,6.5V19a2.006,2.006,0,0,0,2,2H19a2.006,2.006,0,0,0,2-2V6.5A1.958,1.958,0,0,0,20.54,5.23ZM12,17.5,6.5,12H10V10h4v2h3.5ZM5.12,5l.81-1h12l.94,1Z" transform="translate(28 449)"/></g></svg>