<svg xmlns="http://www.w3.org/2000/svg" viewBox="0 0 48.61 43.74"><defs><style>.cls-1,.cls-2{fill:#ffcb23;}.cls-2,.cls-3,.cls-4,.cls-6{stroke:#000;}.cls-2,.cls-3{stroke-miterlimit:10;}.cls-3,.cls-4,.cls-6{fill:none;}.cls-3{stroke-width:0.75px;}.cls-4,.cls-6{stroke-linecap:round;stroke-linejoin:round;}.cls-5{fill:#29abe2;}.cls-6{stroke-dasharray:3 3;}</style></defs><title>Asset 15</title><g id="Layer_2" data-name="Layer 2"><g id="Layer_1-2" data-name="Layer 1"><path class="cls-1" d="M25.89,18C13.34,18,3.17,23.3,3.17,29.81S13.34,41.62,25.89,41.62s22.72-5.29,22.72-11.81S38.43,18,25.89,18Z"/><ellipse class="cls-2" cx="9.8" cy="40.03" rx="4.32" ry="3.21"/><circle class="cls-3" cx="9.52" cy="19.16" r="4.04"/><path class="cls-4" d="M8.69,38.73C8.35,38.12.5,23.58.5,18.87A9,9,0,0,1,9.39,9.81a9,9,0,0,1,8.89,9.06c0,4.71-7.85,19.25-8.19,19.86L9.39,40Z"/><path class="cls-5" d="M9.52,10.53a8.25,8.25,0,0,0-8.25,8.24c0,4.55,8.25,19.47,8.25,19.47s8.24-14.92,8.24-19.47A8.24,8.24,0,0,0,9.52,10.53Zm0,13.23a4.61,4.61,0,1,1,4.6-4.6A4.6,4.6,0,0,1,9.52,23.76Z"/><circle class="cls-2" cx="34.87" cy="16.46" r="1.74"/><circle class="cls-3" cx="34.93" cy="5.32" r="2.08"/><path class="cls-4" d="M34.5,15.41c-.17-.31-4.22-7.81-4.22-10.24a4.59,4.59,0,1,1,9.17,0c0,2.43-4.05,9.93-4.22,10.24l-.36.67Z"/><path class="cls-5" d="M34.93.87a4.26,4.26,0,0,0-4.25,4.25c0,2.35,4.25,10,4.25,10s4.25-7.69,4.25-10A4.25,4.25,0,0,0,34.93.87Zm0,6.83a2.38,2.38,0,1,1,2.38-2.38A2.38,2.38,0,0,1,34.93,7.7Z"/><path class="cls-6" d="M32.85,16.61c-3.62.52-12.15-.4-11.9,4.33S31,25.45,34,27.74A6.72,6.72,0,0,1,33.4,39c-5.68,3.27-13.15,1-19.28,1"/></g></g></svg>