<svg xmlns="http://www.w3.org/2000/svg" width="32" height="32" viewBox="0 0 32 32"><defs><style>.a,.b{fill:#fff;}.a{opacity:0;}</style></defs><g transform="translate(-25 -637)"><rect class="a" width="32" height="32" transform="translate(25 637)"/><g transform="translate(76.42 673.616)"><g transform="translate(-45.944 -33.667)"><path class="b" d="M44.177,62.167a7.371,7.371,0,0,1-.811-.567v.027a11.764,11.764,0,0,1-.459,2.459c-.621,1.216-2.621,5.377-2.648,5.431a1.253,1.253,0,0,0,.567,1.675,1.329,1.329,0,0,0,.54.135,1.291,1.291,0,0,0,1.135-.7c.027-.027,2.026-4.188,2.648-5.4a7.469,7.469,0,0,0,.513-1.837,11.147,11.147,0,0,0-1.189-.973A.845.845,0,0,0,44.177,62.167Z" transform="translate(-32.004 -45.587)"/><path class="b" d="M31.269,31.639a15.562,15.562,0,0,1-2.324-2.215c-.081-.135-.189-.378-.3-.621-.54-1.189-1.567-3.377-3.837-3.377,0,0-1.216-.027-1.594-.027-2.567-.054-4.242,2.215-4.647,3.026-.378.811-1.243,3.377-1.4,3.945a.93.93,0,0,0,.27.946l-1.3,3.107L13.9,35.475a.874.874,0,0,0-1.135.459l-2.648,6.349a.874.874,0,0,0,.459,1.135l2.08.865a1.79,1.79,0,0,1,0-1.3,1.77,1.77,0,0,1,1.621-1.081,1.881,1.881,0,0,1,.675.135,1.673,1.673,0,0,1,.459.3L17.3,37.853a.874.874,0,0,0-.459-1.135l1.324-3.134a1.012,1.012,0,0,0,.892-.7c.162-.54,1-3,1.3-3.62a3.855,3.855,0,0,1,.811-1.027,19.5,19.5,0,0,0-.189,5.35c.054.675,1.243,1.378,1.918,1.837a12.274,12.274,0,0,1,3.161,3.269c.27.621,1.432,3.918,2.026,5.4a1.282,1.282,0,0,0,1.162.811,1.372,1.372,0,0,0,.459-.081,1.225,1.225,0,0,0,.7-1.621c-.081-.189-1.7-4.7-2.053-5.512a16.51,16.51,0,0,0-2.4-3.134l-.054-.054a29.585,29.585,0,0,1,.486-5.809c.162.3.324.621.486.946a7.948,7.948,0,0,0,.432.838,15.718,15.718,0,0,0,2.756,2.7,1.071,1.071,0,0,0,.594.216,1,1,0,0,0,.757-.351A.988.988,0,0,0,31.269,31.639Z" transform="translate(-10.045 -19.165)"/><ellipse class="b" cx="2.675" cy="2.675" rx="2.675" ry="2.675" transform="matrix(0.017, -1, 1, 0.017, 11.221, 5.349)"/><ellipse class="b" cx="1.216" cy="1.216" rx="1.216" ry="1.216" transform="matrix(0.385, -0.923, 0.923, 0.385, 2.639, 25.165)"/></g></g></g></svg>