<?xml version="1.0"?>
<svg xmlns="http://www.w3.org/2000/svg" height="512px" viewBox="0 -32 411.00001 411" width="512px"><g><path d="m82.300781 342.699219 29.597657-13c2.519531-1.097657 5.382812-1.097657 7.902343 0l41.097657 17.5 40.601562-17.398438c2.519531-1.101562 5.382812-1.101562 7.898438 0l40.601562 17.398438 41.101562-17.5c2.515626-1.097657 5.378907-1.097657 7.898438 0l29.601562 13v-342.699219h-246.300781zm83.597657-244.5c-5.519532 0-10-4.476563-10-10 0-5.523438 4.480468-10 10-10h44.402343c-3.921875-8.511719-12.429687-13.976563-21.800781-14h-22.699219c-5.523437 0-10-4.476563-10-10 0-5.523438 4.476563-10 10-10h79.199219c5.523438 0 10 4.476562 10 10 0 5.523437-4.476562 10-10 10h-19.699219c2.820313 4.269531 4.855469 9.011719 6 14h13.699219c5.523438 0 10 4.476562 10 10 0 5.523437-4.476562 10-10 10h-13.699219c-4.492187 18.988281-20.921875 32.773437-40.402343 33.902343l38.402343 36.296876c2.984375 2.808593 3.941407 7.15625 2.417969 10.957031s-5.222656 6.277343-9.320312 6.246093c-2.554688-.003906-5.019532-.96875-6.898438-2.703124l-56.601562-53.5c-2.972657-2.824219-3.925782-7.175782-2.40625-10.984376 1.519531-3.808593 5.207031-6.308593 9.308593-6.3125h22.699219c9.386719.015626 17.914062-5.460937 21.800781-14h-44.402343zm-45.097657 127.800781h169.398438c5.523437 0 10 4.476562 10 10s-4.476563 10-10 10h-169.398438c-5.523437 0-10-4.476562-10-10s4.476563-10 10-10zm0 48.601562h169.398438c5.523437 0 10 4.476563 10 10 0 5.519532-4.476563 10-10 10h-169.398438c-5.523437 0-10-4.480468-10-10 0-5.523437 4.476563-10 10-10zm0 0" data-original="#000000" class="active-path" data-old_color="#000000" fill="#FFFFFF"/><path d="m348.699219 0h62.300781v93h-62.300781zm0 0" data-original="#000000" class="active-path" data-old_color="#000000" fill="#FFFFFF"/><path d="m0 0h62.300781v93h-62.300781zm0 0" data-original="#000000" class="active-path" data-old_color="#000000" fill="#FFFFFF"/></g> </svg>
