<?xml version="1.0"?>
<svg xmlns="http://www.w3.org/2000/svg" xmlns:xlink="http://www.w3.org/1999/xlink" version="1.1" id="Capa_1" x="0px" y="0px" viewBox="0 0 512 512" style="enable-background:new 0 0 512 512;" xml:space="preserve" width="512px" height="512px"><g><g>
	<g>
		<path d="M423.385,0H88.615C64.184,0,44.308,19.876,44.308,44.308v423.385c0,24.431,19.876,44.308,44.308,44.308h334.769    c24.431,0,44.308-19.876,44.308-44.308V44.308C467.692,19.876,447.816,0,423.385,0z M438.154,467.692    c0,8.144-6.625,14.769-14.769,14.769H293.717l144.437-133.604V467.692z M270.769,463.45V329.846h144.436L270.769,463.45z     M438.154,300.308H256c-8.157,0-14.769,6.613-14.769,14.769v167.385H88.615c-8.144,0-14.769-6.625-14.769-14.769V132.923h364.308    V300.308z M438.154,103.385H73.846V44.308c0-8.144,6.625-14.769,14.769-14.769h334.769c8.144,0,14.769,6.625,14.769,14.769    V103.385z" data-original="#000000" class="active-path" data-old_color="#000000" fill="#FFFFFF"/>
	</g>
</g><g>
	<g>
		<path d="M393.846,162.462H118.154c-8.157,0-14.769,6.613-14.769,14.769S109.997,192,118.154,192h275.692    c8.157,0,14.769-6.613,14.769-14.769S402.003,162.462,393.846,162.462z" data-original="#000000" class="active-path" data-old_color="#000000" fill="#FFFFFF"/>
	</g>
</g><g>
	<g>
		<path d="M393.846,241.231H118.154c-8.157,0-14.769,6.613-14.769,14.769s6.613,14.769,14.769,14.769h275.692    c8.157,0,14.769-6.613,14.769-14.769S402.003,241.231,393.846,241.231z" data-original="#000000" class="active-path" data-old_color="#000000" fill="#FFFFFF"/>
	</g>
</g><g>
	<g>
		<path d="M196.923,320h-78.769c-8.157,0-14.769,6.613-14.769,14.769s6.613,14.769,14.769,14.769h78.769    c8.157,0,14.769-6.613,14.769-14.769S205.08,320,196.923,320z" data-original="#000000" class="active-path" data-old_color="#000000" fill="#FFFFFF"/>
	</g>
</g></g> </svg>
