<svg xmlns="http://www.w3.org/2000/svg" width="20" height="20.007" viewBox="0 0 20 20.007"><defs><style>.a{fill:#fff;}</style></defs><g transform="translate(0.946 -77.588)"><g transform="translate(-0.946 77.588)"><g transform="translate(0 0)"><path class="a" d="M87.409,95.293l1.716-1.716,2.657-2.657a9.309,9.309,0,0,1,.754-.728l-.188.146a2.514,2.514,0,0,1,.533-.313l-.223.093a2.579,2.579,0,0,1,.645-.176c-.081.012-.165.023-.246.032a2.628,2.628,0,0,1,.633,0c-.081-.012-.165-.023-.246-.032a2.484,2.484,0,0,1,.645.176l-.223-.093a2.616,2.616,0,0,1,.533.313l-.188-.146a2.476,2.476,0,0,1,.427.427l-.146-.188a2.513,2.513,0,0,1,.313.533c-.03-.074-.063-.148-.093-.223a2.579,2.579,0,0,1,.176.645c-.012-.081-.023-.165-.032-.246a2.628,2.628,0,0,1,0,.633c.012-.081.023-.165.032-.246a2.484,2.484,0,0,1-.176.645c.03-.074.063-.148.093-.223a2.616,2.616,0,0,1-.313.533l.146-.188a8.585,8.585,0,0,1-.668.7l-1.278,1.278L89.871,97.09A10.908,10.908,0,0,1,88.9,98l.188-.146a5.269,5.269,0,0,1-1.074.619l.223-.093a5.063,5.063,0,0,1-1.261.345c.081-.012.165-.023.246-.032a5.115,5.115,0,0,1-1.331,0c.081.012.165.023.246.032a5.063,5.063,0,0,1-1.261-.345l.223.093a4.953,4.953,0,0,1-1.071-.624l.188.146a5.032,5.032,0,0,1-.9-.9l.146.188a4.817,4.817,0,0,1-.626-1.071c.03.074.063.148.093.223a5.063,5.063,0,0,1-.345-1.261c.012.081.023.165.032.246a5.115,5.115,0,0,1,0-1.331c-.012.081-.023.165-.032.246a5.063,5.063,0,0,1,.345-1.261c-.03.074-.063.148-.093.223a4.953,4.953,0,0,1,.624-1.071l-.146.188a12.751,12.751,0,0,1,1.131-1.189l2.043-2.043L89,86.661l2.147-2.147c.3-.3.6-.6.9-.9a5.206,5.206,0,0,1,.48-.422l-.188.146a4.9,4.9,0,0,1,1.071-.624L93.2,82.8a5.063,5.063,0,0,1,1.261-.345c-.081.012-.165.023-.246.032a5.114,5.114,0,0,1,1.331,0c-.081-.012-.165-.023-.246-.032a5.064,5.064,0,0,1,1.261.345l-.223-.093a4.953,4.953,0,0,1,1.071.624l-.188-.146a5.033,5.033,0,0,1,.9.9l-.146-.188a4.9,4.9,0,0,1,.624,1.071c-.03-.074-.063-.148-.093-.223a5.064,5.064,0,0,1,.345,1.261c-.012-.081-.023-.165-.032-.246a5.114,5.114,0,0,1,0,1.331c.012-.081.023-.165.032-.246a5.064,5.064,0,0,1-.345,1.261c.03-.074.063-.148.093-.223a4.953,4.953,0,0,1-.624,1.071l.146-.188a4.881,4.881,0,0,1-.422.48.928.928,0,0,0,1.312,1.312,5.84,5.84,0,0,0,1.665-4.769,5.793,5.793,0,0,0-2.838-4.408,5.884,5.884,0,0,0-4.985-.438A5.99,5.99,0,0,0,90.741,82.3l-.241.241-1.424,1.424L86.908,86.13l-2.251,2.251-1.7,1.7A10.973,10.973,0,0,0,81.772,91.4a5.847,5.847,0,0,0,7.686,8.433A8.918,8.918,0,0,0,91.3,98.272l2.1-2.1,1.952-1.952.383-.383a3.391,3.391,0,0,0,.985-2.411,3.335,3.335,0,0,0-1.206-2.543,3.41,3.41,0,0,0-1.368-.689,3.554,3.554,0,0,0-1.563,0,3.386,3.386,0,0,0-1.642.939l-.538.538-2.1,2.1L86.4,93.679l-.308.308a.94.94,0,0,0,0,1.312.959.959,0,0,0,1.317-.007Z" transform="translate(-80.718 -80.588)"/></g></g></g></svg>