<svg xmlns="http://www.w3.org/2000/svg" width="32" height="32" viewBox="0 0 32 32"><defs><style>.a,.b{fill:#fff;}.a{opacity:0;}</style></defs><g transform="translate(-22 -184)"><rect class="a" width="32" height="32" transform="translate(22 184)"/><path class="b" d="M-2014.25-164a.75.75,0,0,1-.75-.751v-22.5a.75.75,0,0,1,.75-.75h15a.75.75,0,0,1,.75.75v22.5a.75.75,0,0,1-.75.751Zm.751-1.5h13.5v-21h-13.5Zm2.25-1.5a.751.751,0,0,1-.751-.75.751.751,0,0,1,.751-.75h9a.75.75,0,0,1,.75.75.75.75,0,0,1-.75.75Zm0-3a.751.751,0,0,1-.751-.75.751.751,0,0,1,.751-.751h9a.751.751,0,0,1,.75.751.75.75,0,0,1-.75.75Zm0-3a.751.751,0,0,1-.751-.751.751.751,0,0,1,.751-.75h9a.75.75,0,0,1,.75.75.75.75,0,0,1-.75.751Zm0-10.5a.751.751,0,0,1-.751-.75.751.751,0,0,1,.751-.751h6.75a.751.751,0,0,1,.75.751.75.75,0,0,1-.75.75Z" transform="translate(2045 376)"/></g></svg>