<svg width="128" height="128" xmlns="http://www.w3.org/2000/svg" preserveAspectRatio="xMidYMid meet">
 <metadata>Created by potrace 1.16, written by Peter Selinger 2001-2019</metadata>

 <g>
  <title>background</title>
  <rect fill="none" id="canvas_background" height="402" width="582" y="-1" x="-1"/>
 </g>
 <g>
  <title>Layer 1</title>
  <path stroke="#ffffff" fill="#ffffff" id="svg_2" d="m23.2,11.199998c-1.7,1.7 -1.7,103.900002 0,105.600002c0.8,0.8 6.7,1.2 20,1.2l18.8,0l0,-2.4c0,-5.6 0,-5.6 -16.6,-5.6l-15.4,0l0,-46.000001l0,-46.100001l9.2,0.3c9,0.3 9.3,0.4 10.6,3c1,2.1 2,2.8 4.2,2.8c2.2,0 3.2,-0.7 4.2,-2.8c1.3,-2.6 1.6,-2.7 10.6,-3l9.2,-0.3l0,21.5l0,21.4l4,0.4l4,0.4l0,-24.6c0,-17.8 -0.3,-24.9 -1.2,-25.8c-1.7,-1.7 -59.900001,-1.7 -61.600001,0z"/>
  <path stroke="#ffffff" fill="#ffffff" id="svg_3" d="m46.400001,55.099999c0.3,1.7 0.6,3.5 0.6,4c0,0.5 1.5,0.9 3.3,0.9c1.7,0 3.7,0.4 4.4,0.8c0.6,0.4 3.3,9.3 6,19.7l4.8,19l24.5,0l24.5,0l2.7,-13c1.5,-7.2 2.7,-13.9 2.8,-15.1c0,-2 -1.1,-2.1 -25.7,-4.4c-14.2,-1.3 -26.3,-2.7 -26.9,-3.2c-0.7,-0.5 -1.4,-2.3 -1.8,-4c-0.3,-1.8 -1.6,-4.2 -2.8,-5.5c-1.9,-2 -3.1,-2.3 -9.6,-2.3l-7.4,0l0.6,3.1z"/>
  <path stroke="#ffffff" fill="#ffffff" id="svg_4" d="m69.700001,105.8c-2.3,2.5 -2.2,8.5 0.1,10.5c2.5,2.3 8.5,2.2 10.5,-0.1c2.3,-2.5 2.2,-8.5 -0.1,-10.5c-2.5,-2.3 -8.5,-2.2 -10.5,0.1z"/>
  <path stroke="#ffffff" fill="#ffffff" id="svg_5" d="m101.700002,105.8c-2.3,2.5 -2.2,8.5 0.1,10.5c2.6,2.4 8.5,2.2 10.7,-0.3c4.3,-4.8 1,-12 -5.5,-12c-2.3,0 -4.3,0.7 -5.3,1.8z"/>
 </g>
</svg>