<svg width="100" height="100" xmlns="http://www.w3.org/2000/svg" preserveAspectRatio="xMidYMid meet">
 <metadata>Created by potrace 1.16, written by Peter Selinger 2001-2019</metadata>

 <g>
  <title>background</title>
  <rect fill="none" id="canvas_background" height="402" width="582" y="-1" x="-1"/>
 </g>
 <g>
  <title>Layer 1</title>
  <path stroke="#fffcfc" stroke-opacity="0" fill="#fcfcfc" id="svg_2" d="m20.7,0.599999c-0.4,0.4 -0.7,2.2 -0.7,4l0,3.3l-7.7,0.3l-7.8,0.3l0,43.500001l0,43.500001l23.9,0.3l23.9,0.2l-1.8,-2c-1.7,-1.9 -3,-2 -22.2,-2l-20.3,0l0,-31l0,-31l42.000001,0l42.000001,0l0,19.3c0,18.2 0.1,19.5 2,21.2l2,1.8l-0.2,-31.9l-0.3,-31.9l-7.7,-0.3l-7.7,-0.3l-0.3,-3.7l-0.3,-3.7l-5.5,0l-5.5,0l-0.3,3.7l-0.3,3.8l-17.9,0l-17.9,0l-0.3,-3.8l-0.3,-3.7l-5,-0.3c-2.8,-0.2 -5.4,0 -5.8,0.4zm-0.5,15.1l0.3,3.8l5.5,0l5.5,0l0.3,-3.8l0.3,-3.7l17.9,0l17.9,0l0.3,3.7l0.3,3.8l5.5,0l5.5,0l0.3,-3.8l0.3,-3.7l6,0l5.9,0l0,7l0,7l-42.000001,0l-42.000001,0l0,-7l0,-7l5.9,0l6,0l0.3,3.7z"/>
  <path stroke="#fffcfc" stroke-opacity="0" fill="#fcfcfc" id="svg_3" d="m20,60.999999l0,23l10.3,0c9.6,0 10.3,-0.1 10.3,-2c0,-1.1 -0.6,-2 -1.3,-2c-0.9,0 -1.3,-1.6 -1.3,-5l0,-5l4.9,0c2.7,0 5.1,0.4 5.3,0.9c0.2,0.5 1.9,-0.4 3.8,-2c2.4,-2.1 2.9,-2.9 1.7,-2.9c-1.4,0 -1.7,-0.9 -1.7,-5l0,-5l5,0c4.9,0 5,0.1 5,3.1c0,2.4 0.4,3 1.8,2.7c1,-0.2 1.8,-1.4 2,-3.1c0.3,-2.5 0.6,-2.7 5.3,-2.7c4.5,0 4.9,0.2 4.9,2.4c0,1.5 0.7,2.6 2,2.9c1.9,0.5 2,0 2,-11.4l0,-11.9l-30,0l-30,0l0,23z"/>
  <path stroke="#fffcfc" stroke-opacity="0" fill="#fcfcfc" id="svg_4" d="m60.200001,66.6c-5.8,2.9 -16.2,12.7 -16.2,15.4c0,2.6 10.6,12.6 16.4,15.5c7,3.5 16.2,3.5 23.2,0c5.8,-2.9 16.4,-12.9 16.4,-15.5c0,-2.6 -10.6,-12.6 -16.4,-15.5c-7,-3.5 -16.2,-3.5 -23.4,0.1zm20.7,4.3c2.1,1.1 6,4 8.7,6.5l4.9,4.6l-4.9,4.6c-6.6,6.1 -11.4,8.4 -17.6,8.4c-6.2,0 -11,-2.3 -17.6,-8.4l-4.9,-4.6l4.9,-4.6c2.7,-2.5 6.5,-5.4 8.5,-6.4c4.8,-2.6 13,-2.6 18,-0.1z"/>
  <path stroke="#fffcfc" stroke-opacity="0" fill="#fcfcfc" id="svg_5" d="m63.400001,73.4c-3,3 -3.4,4 -3.4,8.6c0,4.6 0.4,5.6 3.4,8.6c3,3 4,3.4 8.6,3.4c4.6,0 5.6,-0.4 8.6,-3.4c3,-3 3.4,-4 3.4,-8.6c0,-4.6 -0.4,-5.6 -3.4,-8.6c-3,-3 -4,-3.4 -8.6,-3.4c-4.6,0 -5.6,0.4 -8.6,3.4zm13.6,3.6c4.3,4.3 1.1,12 -5,12c-3.8,0 -7,-3.2 -7,-7c0,-3.8 3.2,-7 7,-7c1.7,0 3.9,0.9 5,2z"/>
 </g>
</svg>