<?xml version="1.0"?>
<svg xmlns="http://www.w3.org/2000/svg" height="512px" viewBox="0 0 512.00034 512" width="512px"><g><path d="m100.609375 366.390625-21.214844 21.210937 40.609375 40.609376 70.605469-70.609376-21.210937-21.214843-49.394532 49.394531zm0 0" data-original="#000000" class="active-path" data-old_color="#000000" fill="#FFFFFF"/><path d="m0 376.996094c0 74.441406 60.5625 135.003906 135.003906 135.003906s135-60.5625 135-135.003906c0-3.773438-.171875-7.535156-.480468-11.273438 2.121093.601563 4.238281 1.152344 6.355468 1.644532 27.425782 6.328124 56.285156 3.394531 76.335938-16.660157l42.425781-42.425781c25.96875-25.964844 25.914063-71.507812.886719-116.207031l90.242187-70.464844c32.207031-25.050781 35.269531-72.777344 6.332031-101.710937-28.933593-28.9375-76.667968-25.867188-101.691406 6.308593l-70.484375 90.265625c-44.699219-25.027344-90.242187-25.082031-116.207031.882813l-42.429688 42.429687c-17.957031 17.953125-23.871093 45.066406-16.65625 76.332032.488282 2.117187 1.042969 4.238281 1.644532 6.359374-3.742188-.3125-7.5-.484374-11.273438-.484374-74.441406 0-135.003906 60.5625-135.003906 135.003906zm414.070312-332.347656c13.992188-17.992188 40.65625-19.703126 56.816407-3.539063 16.136719 16.132813 14.496093 42.792969-3.558594 56.835937l-140.984375 110.085938c-11.398438-1.960938-20.417969-10.976562-22.375-22.375zm-112.867187 95.800781-28.195313 35.386719v5.164062c0 31.664062 26.328126 57.992188 57.992188 57.992188h5.164062l35.386719-28.199219c16.035157 30.925781 17.179688 60.96875 1.875 76.273437-7.417969 7.417969-18 10.929688-30.285156 10.929688-25.808594-.003906-59.125-15.484375-86.390625-42.75-20.703125-20.703125-35.070312-44.957032-40.457031-68.296875-4.804688-20.820313-1.738281-38 8.636719-48.375 15.308593-15.308594 45.347656-14.160157 76.273437 1.875zm-116.609375 38.457031c2.972656 29.445312 18.902344 65.511719 50.945312 97.554688 26.050782 26.050781 61.34375 47.285156 97.554688 50.9375-1.257812.660156-13.554688 19.253906-50.46875 10.734374-23.339844-5.386718-47.597656-19.753906-68.300781-40.460937-20.703125-20.703125-35.074219-44.960937-40.460938-68.300781-8.542969-37.023438 10.082031-49.222656 10.730469-50.464844zm8.515625 139.980469c13.507813 13.507812 28.453125 24.777343 43.933594 33.304687 1.957031 8.082032 2.960937 16.394532 2.960937 24.804688 0 57.898437-47.101562 105-105 105-57.898437 0-105.003906-47.101563-105.003906-105 0-57.898438 47.105469-105.003906 105.003906-105.003906 8.40625 0 16.722656 1.007812 24.804688 2.964843 8.523437 15.480469 19.796875 30.421875 33.300781 43.929688zm0 0" data-original="#000000" class="active-path" data-old_color="#000000" fill="#FFFFFF"/></g> </svg>
