<?xml version="1.0"?>
<svg xmlns="http://www.w3.org/2000/svg" height="512px" viewBox="-28 0 448 448" width="512px"><g><path d="m288 200h48c4.800781 0 8 3.199219 8 8v32c0 4.800781-3.199219 8-8 8h-48c-4.800781 0-8-3.199219-8-8v-32c0-4.800781 3.199219-8 8-8zm0 0" data-original="#000000" class="active-path" data-old_color="#000000" fill="#FFFFFF"/><path d="m240 296c-13.601562 0-24-10.398438-24-24v-144c0-13.601562 10.398438-24 24-24h64v-96c0-4.800781-3.199219-8-8-8h-288c-4.800781 0-8 3.199219-8 8v432c0 4.800781 3.199219 8 8 8h232v-40c0-13.601562 10.398438-24 24-24h40v-68.800781l-19.199219-19.199219zm-136-272h96v16h-96zm-40 40h216v16h-216zm0 48h128v16h-128zm0 48h128v16h-128zm0 48h128v16h-128zm0 48h128v16h-128zm0 48h128v16h-128zm-16 112h-24v-16h24zm0-48h-24v-16h24zm0-48h-24v-16h24zm0-48h-24v-16h24zm0-48h-24v-16h24zm0-48h-24v-16h24zm0-48h-24v-16h24zm0-48h-24v-16h24zm168 336h-152v-16h152zm64-48h-216v-16h216zm0 0" data-original="#000000" class="active-path" data-old_color="#000000" fill="#FFFFFF"/><path d="m256 408v28.800781l36.800781-36.800781h-28.800781c-4.800781 0-8 3.199219-8 8zm0 0" data-original="#000000" class="active-path" data-old_color="#000000" fill="#FFFFFF"/><path d="m384 120h-144c-4.800781 0-8 3.199219-8 8v144c0 4.800781 3.199219 8 8 8h51.199219l20.800781 20.800781 20.800781-20.800781h51.199219c4.800781 0 8-3.199219 8-8v-144c0-4.800781-3.199219-8-8-8zm-24 120c0 13.601562-10.398438 24-24 24h-48c-13.601562 0-24-10.398438-24-24v-32c0-13.601562 10.398438-24 24-24h40v-16c0-8.800781-7.199219-16-16-16s-16 7.199219-16 16h-16c0-17.601562 14.398438-32 32-32s32 14.398438 32 32v17.601562c9.601562 3.199219 16 12 16 22.398438zm0 0" data-original="#000000" class="active-path" data-old_color="#000000" fill="#FFFFFF"/></g> </svg>
