<svg width="256" height="256" xmlns="http://www.w3.org/2000/svg" preserveAspectRatio="xMidYMid meet">

 <g>
  <title>background</title>
  <rect fill="none" id="canvas_background" height="22.064197" width="22.064197" y="-1" x="-1"/>
 </g>
 <g>
  <title>Layer 1</title>
  <path stroke="#ffffff" stroke-opacity="0" fill="#ffffff" id="svg_2" d="m116.100002,1.599996c-7.7,2.1 -14.6,6.1 -20.5,12.1c-5.7,5.6 -11.1,14.8 -12.4,20.9l-0.8,3.9l-18.7,0.3l-18.7,0.2l0,50.000001l0,50.000001l36.000001,0l36.000001,0l0,10l0,10l-48.000001,0l-48.000001,0l0,17.5l0,17.5l-4,2c-5.4,2.7 -11.2,8.9 -14.1,14.8c-3.4,6.9 -3.3,19.7 0.1,26.7c3.1,6.4 9.1,12.4 15.5,15.5c7.2,3.5 19.8,3.5 27,0c6.4,-3.1 12.4,-9.1 15.5,-15.5c3.4,-7 3.5,-19.8 0.1,-26.7c-2.9,-5.9 -8.7,-12.1 -14.1,-14.8l-4,-2l0,-7l0,-7l37.000001,0l37.000001,0l0,7l0,7l-4,2c-5.4,2.7 -11.2,8.9 -14.1,14.8c-3.4,6.9 -3.3,19.7 0.1,26.7c3.1,6.4 9.1,12.4 15.5,15.5c7.2,3.5 19.8,3.5 27,0c6.4,-3.1 12.4,-9.1 15.5,-15.5c3.4,-7 3.5,-19.8 0.1,-26.7c-2.9,-5.9 -8.7,-12.1 -14.1,-14.8l-4,-2l0,-7l0,-7l37.000001,0l37.000001,0l0,7l0,7l-4,2c-5.4,2.7 -11.2,8.9 -14.1,14.8c-3.4,6.9 -3.3,19.7 0.1,26.7c3.1,6.4 9.1,12.4 15.5,15.5c7.2,3.5 19.8,3.5 27,0c6.4,-3.1 12.4,-9.1 15.5,-15.5c3.4,-7 3.5,-19.8 0.1,-26.7c-2.9,-5.9 -8.7,-12.1 -14.1,-14.8l-4,-2l0,-17.5l0,-17.5l-48.000001,0l-48.000001,0l0,-10l0,-10l36.000001,0l36.000001,0l0,-50.000001l0,-50.000001l-18.5,0l-18.4,0l-1.2,-4.2c-6.6,-24.7 -32.4,-39.800001 -56.800001,-33.2zm17.9,18.5c2.5,0.6 6.6,2.4 9.2,4c4.5,2.9 10.8,10.8 10.8,13.6c0,1 -5,1.3 -26,1.3c-21.2,0 -26,-0.3 -26,-1.3c0,-1.7 5.5,-9.5 8.4,-11.9c4.1,-3.4 12,-6.5 17.1,-6.7c1.1,0 4,0.4 6.5,1zm-52.200001,45.600001l0.3,9.3l8.9,0l9,0l0,-9.5l0,-9.5l28,0l28,0l0,9.5l0,9.5l9,0l8.9,0l0.3,-9.3l0.3,-9.2l8.8,-0.3l8.7,-0.3l0,32.1l0,32l-64.500001,0l-64.500001,0l0,-31.3c0,-17.3 0.3,-31.7 0.7,-32.1c0.4,-0.4 4.6,-0.5 9.3,-0.4l8.5,0.3l0.3,9.2z"/>
 </g>
</svg>