<svg width="512" height="512" xmlns="http://www.w3.org/2000/svg" preserveAspectRatio="xMidYMid meet">
 <metadata>Created by potrace 1.16, written by Peter Selinger 2001-2019</metadata>

 <g>
  <title>background</title>
  <rect fill="none" id="canvas_background" height="402" width="582" y="-1" x="-1"/>
 </g>
 <g>
  <title>Layer 1</title>
  <path stroke="#ffffff" fill="#ffffff" id="svg_2" d="m167.000002,1.499992c-86.200001,13.1 -153.500002,80.900001 -165.500002,166.500002c-1.9,14.1 -1.9,41.200001 0,54.900001c12.5,88.100001 82.100001,156.200002 170.800003,167.200002c15.8,1.9 47.300001,0.7 62.200001,-2.5c30.8,-6.5 62.000001,-21.1 83.400001,-39.000001l4.5,-3.7l12.4,12.4l12.4,12.4l-1.9,5.4c-1.3,3.9 -1.8,8.2 -1.7,15.9c0.1,12.4 2.1,18.7 8.9,27.7c2.4,3.2 22.3,23.6 44.200001,45.400001c38.200001,38.100001 40.100001,39.800001 47.800001,43.500001c7.4,3.6 8.8,3.9 18.5,4.2c8.8,0.3 11.5,0 16.9,-1.8c14.9,-5 25.1,-15.3 30.2,-30.2c1.7,-5.2 2,-8.1 1.7,-16.9c-0.3,-9.9 -0.6,-11 -4.2,-18.5c-3.7,-7.5 -5.8,-9.9 -43.500001,-47.700001c-21.8,-21.9 -42.200001,-41.800001 -45.400001,-44.200001c-9,-6.8 -15.3,-8.8 -27.7,-8.9c-7.7,-0.1 -12,0.4 -15.9,1.7l-5.4,1.9l-12.4,-12.4l-12.4,-12.4l3.7,-4.5c17.6,-21 33,-53.700001 38.800001,-82.500001c4,-19.7 4.9,-49.200001 2.1,-67.900001c-7.9,-52.500001 -35.700001,-98.900001 -78.000001,-130.000002c-23.4,-17.2 -48.800001,-28.3 -79.300001,-34.600001c-13,-2.7 -51.000001,-3.5 -65.200001,-1.4zm61.300001,32.4c24.9,5.2 48.300001,16.1 68.200001,31.6c9.1,7.2 24,22.1 30.7,31c40.600001,53.500001 44.000001,127.400002 8.6,185.300003c-12.3,20.1 -33.2,41.100001 -53.800001,53.900001c-47.900001,29.8 -109.600002,32.6 -160.100002,7.2c-30,-15 -58.800001,-43.800001 -73.800001,-73.800001c-5.6,-11.1 -10.5,-25 -13.7,-38.600001c-2.7,-11.3 -2.9,-13.3 -2.9,-35.000001c0,-21.7 0.2,-23.7 2.9,-35.000001c7.5,-32 20.6,-56.200001 43.000001,-79.400001c23.8,-24.5 52.300001,-40.300001 85.300001,-47.200001c19.3,-4 46.400001,-4 65.600001,0zm168.500003,341.500005c4.8,2.6 83.000001,81.800001 83.800001,84.900001c1,4.4 -0.1,11.2 -2.4,14.5c-4.1,5.6 -13.9,8 -20,4.8c-1.5,-0.8 -20.8,-19.6 -42.900001,-41.800001c-43.100001,-43.300001 -42.600001,-42.600001 -40.900001,-51.000001c1.9,-9.6 14.1,-15.8 22.4,-11.4z"/>
  <path stroke="#ffffff" fill="#ffffff" id="svg_3" d="m179.500003,62.899993c-20.3,5.8 -36.700001,22.6 -41.900001,42.800001c-0.9,3.4 -1.6,8.2 -1.6,10.7l0,4.6l-17.7,0c-19.6,0 -21.3,0.5 -25.4,6.6c-1.8,2.8 -1.9,5.8 -1.9,65.900001c0.1,62.600001 0.1,63.000001 2.3,69.600001c6.2,18.1 20.5,31.8 38.200001,36.400001c8.8,2.2 120.200002,2.2 129.000002,0c18.1,-4.8 32.8,-19.1 38.800001,-38.000001c2.2,-6.9 2.2,-7.8 2.2,-68.500001l0,-61.500001l-2.2,-3.5c-3.8,-6.1 -5,-6.4 -24.8,-7l-18,-0.5l-0.7,-6.7c-2.3,-24.1 -20.6,-45.000001 -44.500001,-51.200001c-8.1,-2.1 -24,-2 -31.8,0.3zm26.8,30.7c9.2,3.1 17.4,13.3 18.5,23l0.5,4.4l-29.2,0l-29.1,0l0.1,-3.3c0.2,-9.7 8.9,-20.7 19.4,-24.5c4.5,-1.6 14.5,-1.4 19.8,0.4zm-70.300001,60.100001c0,6.8 6.8,12.3 15,12.3c8.2,0 15,-5.5 15,-12.3l0,-2.7l30,0l30,0l0,2.7c0,6.8 6.8,12.3 15,12.3c8.2,0 15,-5.5 15,-12.3l0,-2.7l7.6,0l7.5,0l-0.3,50.200001l-0.3,50.300001l-2.4,4.5c-3.2,6.1 -5.7,8.7 -11.6,11.8l-5,2.7l-49.000001,0.3c-26.9,0.2 -52.200001,0.1 -56.200001,-0.3c-9.7,-0.9 -16.5,-4.9 -21,-12.5l-3.3,-5.4l0,-50.800001l0,-50.800001l7,0c7,0 7,0 7,2.7z"/>
 </g>
</svg>