<?xml version="1.0"?>
<svg xmlns="http://www.w3.org/2000/svg" xmlns:xlink="http://www.w3.org/1999/xlink" version="1.1" id="Capa_1" x="0px" y="0px" viewBox="0 0 297 297" style="enable-background:new 0 0 297 297;" xml:space="preserve" width="512px" height="512px"><g><g>
	<path d="M238.21,155.813h-10.46v-10.46c0-5.522-4.478-10-10-10s-10,4.478-10,10v10.46h-10.46c-5.522,0-10,4.478-10,10   s4.478,10,10,10h10.46v10.46c0,5.522,4.478,10,10,10s10-4.478,10-10v-10.46h10.46c5.522,0,10-4.478,10-10   S243.732,155.813,238.21,155.813z" data-original="#000000" class="active-path" data-old_color="#000000" fill="#FFFFFF"/>
	<path d="M44.627,95.22c-2.641,0-5.21,1.07-7.07,2.93c-1.87,1.86-2.93,4.44-2.93,7.07s1.06,5.21,2.93,7.07   c1.86,1.859,4.44,2.93,7.07,2.93s5.21-1.07,7.07-2.93c1.859-1.86,2.93-4.44,2.93-7.07s-1.07-5.21-2.93-7.07   C49.837,96.29,47.257,95.22,44.627,95.22z" data-original="#000000" class="active-path" data-old_color="#000000" fill="#FFFFFF"/>
	<path d="M79.247,95.22c-2.63,0-5.21,1.07-7.07,2.93c-1.86,1.86-2.93,4.44-2.93,7.07s1.069,5.21,2.93,7.07   c1.86,1.859,4.44,2.93,7.07,2.93s5.21-1.07,7.069-2.93c1.87-1.86,2.931-4.44,2.931-7.07s-1.061-5.21-2.931-7.07   C84.457,96.29,81.887,95.22,79.247,95.22z" data-original="#000000" class="active-path" data-old_color="#000000" fill="#FFFFFF"/>
	<path d="M44.627,129.84c-2.63,0-5.21,1.07-7.07,2.93c-1.87,1.86-2.93,4.44-2.93,7.07c0,2.64,1.06,5.21,2.93,7.07   c1.86,1.869,4.44,2.93,7.07,2.93s5.21-1.061,7.07-2.93c1.859-1.86,2.93-4.431,2.93-7.07c0-2.63-1.07-5.2-2.93-7.07   C49.837,130.91,47.257,129.84,44.627,129.84z" data-original="#000000" class="active-path" data-old_color="#000000" fill="#FFFFFF"/>
	<path d="M79.247,129.84c-2.63,0-5.21,1.07-7.07,2.93c-1.86,1.86-2.93,4.44-2.93,7.07c0,2.64,1.069,5.21,2.93,7.07   c1.86,1.869,4.44,2.93,7.07,2.93s5.21-1.061,7.069-2.93c1.87-1.86,2.931-4.431,2.931-7.07c0-2.63-1.061-5.21-2.931-7.07   C84.457,130.91,81.877,129.84,79.247,129.84z" data-original="#000000" class="active-path" data-old_color="#000000" fill="#FFFFFF"/>
	<path d="M44.627,164.47c-2.641,0-5.21,1.07-7.07,2.93c-1.859,1.86-2.93,4.431-2.93,7.07c0,2.63,1.07,5.21,2.93,7.07   c1.86,1.859,4.44,2.93,7.07,2.93s5.2-1.07,7.07-2.93c1.859-1.86,2.93-4.44,2.93-7.07s-1.07-5.21-2.93-7.07   C49.837,165.54,47.257,164.47,44.627,164.47z" data-original="#000000" class="active-path" data-old_color="#000000" fill="#FFFFFF"/>
	<path d="M79.247,164.47c-2.63,0-5.21,1.07-7.07,2.93c-1.86,1.86-2.93,4.44-2.93,7.07s1.069,5.21,2.93,7.07   c1.86,1.859,4.44,2.93,7.07,2.93s5.21-1.07,7.069-2.93c1.86-1.86,2.931-4.44,2.931-7.07s-1.07-5.21-2.931-7.07   C84.457,165.54,81.877,164.47,79.247,164.47z" data-original="#000000" class="active-path" data-old_color="#000000" fill="#FFFFFF"/>
	<path d="M44.627,199.09c-2.641,0-5.21,1.07-7.07,2.93c-1.87,1.86-2.93,4.44-2.93,7.07c0,2.64,1.06,5.21,2.93,7.07   c1.86,1.869,4.44,2.939,7.07,2.939s5.21-1.07,7.07-2.939c1.859-1.86,2.93-4.44,2.93-7.07s-1.07-5.2-2.93-7.07   C49.837,200.16,47.257,199.09,44.627,199.09z" data-original="#000000" class="active-path" data-old_color="#000000" fill="#FFFFFF"/>
	<path d="M79.247,199.09c-2.63,0-5.21,1.07-7.07,2.93c-1.86,1.86-2.93,4.44-2.93,7.07c0,2.64,1.069,5.21,2.93,7.07   c1.87,1.869,4.44,2.939,7.07,2.939s5.21-1.07,7.069-2.939c1.87-1.86,2.931-4.431,2.931-7.07c0-2.63-1.061-5.21-2.931-7.07   C84.457,200.16,81.887,199.09,79.247,199.09z" data-original="#000000" class="active-path" data-old_color="#000000" fill="#FFFFFF"/>
	<path d="M44.627,233.72c-2.63,0-5.21,1.07-7.07,2.93c-1.859,1.86-2.93,4.44-2.93,7.07s1.07,5.21,2.93,7.07   c1.86,1.859,4.43,2.93,7.07,2.93c2.63,0,5.21-1.07,7.07-2.93c1.859-1.86,2.93-4.44,2.93-7.07c0-2.64-1.07-5.21-2.93-7.07   C49.837,234.79,47.257,233.72,44.627,233.72z" data-original="#000000" class="active-path" data-old_color="#000000" fill="#FFFFFF"/>
	<path d="M79.247,233.72c-2.63,0-5.21,1.07-7.07,2.93c-1.86,1.86-2.93,4.44-2.93,7.07s1.069,5.21,2.93,7.07   c1.86,1.859,4.44,2.93,7.07,2.93c2.64,0,5.21-1.07,7.069-2.93c1.87-1.86,2.931-4.44,2.931-7.07s-1.061-5.21-2.931-7.07   C84.457,234.79,81.877,233.72,79.247,233.72z" data-original="#000000" class="active-path" data-old_color="#000000" fill="#FFFFFF"/>
	<path d="M270.769,46.151V18.656c0-5.522-4.478-10-10-10h-86.037c-5.522,0-10,4.478-10,10v27.495   C149.39,52.196,138.5,67.152,138.5,84.615V247.01c0,22.792,18.542,41.334,41.333,41.334h75.833   c22.792,0,41.334-18.542,41.334-41.334V84.615C297,67.153,286.11,52.196,270.769,46.151z M158.5,123.875H277v83.875H158.5V123.875z    M184.731,28.656h66.037v14.625h-66.037V28.656z M179.833,63.281h75.833c11.764,0,21.334,9.57,21.334,21.334v19.26H158.5v-19.26   C158.5,72.852,168.07,63.281,179.833,63.281z M255.666,268.344h-75.833c-11.763,0-21.333-9.57-21.333-21.334v-19.26H277v19.26   C277,258.773,267.43,268.344,255.666,268.344z" data-original="#000000" class="active-path" data-old_color="#000000" fill="#FFFFFF"/>
	<path d="M97.791,60.594H26.083C11.701,60.594,0,72.295,0,86.678V262.26c0,14.383,11.701,26.084,26.083,26.084h71.708   c14.383,0,26.084-11.701,26.084-26.084V86.678C123.875,72.295,112.174,60.594,97.791,60.594z M103.875,262.26   c0,3.354-2.729,6.084-6.084,6.084H26.083c-3.354,0-6.083-2.729-6.083-6.084V86.678c0-3.354,2.729-6.084,6.083-6.084h71.708   c3.354,0,6.084,2.729,6.084,6.084V262.26z" data-original="#000000" class="active-path" data-old_color="#000000" fill="#FFFFFF"/>
</g></g> </svg>
