<svg xmlns="http://www.w3.org/2000/svg" width="32" height="32" viewBox="0 0 32 32"><defs><style>.a,.b,.c{fill:#fff;}.a{opacity:0;}.b{fill-rule:evenodd;}</style></defs><g transform="translate(-25 -507)"><rect class="a" width="32" height="32" transform="translate(25 507)"/><g transform="translate(23.9 505.9)"><path class="b" d="M28.3,15.138l-1.655-1.869V10.546a3.173,3.173,0,0,0-2.99-2.99H20.9L19.035,5.9a2.8,2.8,0,0,0-3.924,0L13.242,7.556h-2.7a3.173,3.173,0,0,0-2.99,2.99v2.723L5.9,15.138a2.8,2.8,0,0,0,0,3.924l1.655,1.869v2.723a3.173,3.173,0,0,0,2.99,2.99h2.723L15.138,28.3a2.8,2.8,0,0,0,3.924,0l1.869-1.655h2.723a3.173,3.173,0,0,0,2.99-2.99V20.9L28.3,19.035A2.772,2.772,0,0,0,28.3,15.138ZM12.548,13.483a2.269,2.269,0,1,1,2.269,2.269A2.267,2.267,0,0,1,12.548,13.483Zm1.628,8.2a.557.557,0,0,1-.427.214.513.513,0,0,1-.32-.107.546.546,0,0,1-.107-.747l6.914-9.077a.534.534,0,0,1,.854.641Zm5.179,1.014a2.269,2.269,0,1,1,2.269-2.269A2.267,2.267,0,0,1,19.356,22.693Z" transform="translate(0 0)"/><circle class="c" cx="1.201" cy="1.201" r="1.201" transform="translate(18.155 19.222)"/><circle class="c" cx="1.201" cy="1.201" r="1.201" transform="translate(13.616 12.281)"/></g></g></svg>