<svg width="512" height="512" xmlns="http://www.w3.org/2000/svg" preserveAspectRatio="xMidYMid meet">
 <metadata>Created by potrace 1.16, written by Peter Selinger 2001-2019</metadata>

 <g>
  <title>background</title>
  <rect fill="none" id="canvas_background" height="396.608754" width="399.636443" y="-1" x="-1"/>
 </g>
 <g>
  <title>Layer 1</title>
  <path stroke="#ffffff" stroke-opacity="0" fill="#fcfcfc" id="svg_2" d="m368.800005,13.899993c-24,4.2 -44.000001,7.9 -44.300001,8.3c-0.8,0.8 3.4,27.9 4.5,29.2c0.5,0.4 9.2,-0.6 19.4,-2.4c10.3,-1.8 18.9,-3 19.2,-2.7c0.3,0.3 -19.3,28.7 -43.600001,63.100001l-44.200001,62.600001l-76.700001,0.1l-76.600001,0l-48.500001,68.600001c-26.7,37.700001 -48.600001,68.900001 -48.700001,69.200001c-0.2,0.3 5.4,4.6 12.4,9.5c12,8.6 12.6,8.9 14,7c0.8,-1 20.8,-29.2 44.500001,-62.700001l43.000001,-60.700001l76.700001,-0.1l76.600001,0l49.000001,-69.600001c41.200001,-58.400001 49.000001,-69.100001 49.600001,-67.200001c0.3,1.3 1.9,10.4 3.4,20.2c2.4,14.6 3.2,17.6 4.5,17.3c0.8,-0.3 7.7,-1.5 15.3,-2.7c8,-1.3 13.7,-2.7 13.7,-3.3c-0.1,-0.6 -3.6,-21.4 -7.8,-46.100001c-7.1,-41.300001 -7.9,-45.000001 -9.7,-45.100001c-1.1,-0.1 -21.7,3.3 -45.700001,7.5z"/>
  <path stroke="#ffffff" stroke-opacity="0" fill="#fcfcfc" id="svg_3" d="m361.700005,183.899995l-24.7,34.900001l0,128.100002l0,128.100002l-14.5,0l-14.5,0l0,-116.500002l0,-116.500002l-58.000001,0l-58.000001,0l0,116.500002l0,116.500002l-14.5,0l-14.5,0l0,-112.700002c0,-97.000001 -0.2,-112.500002 -1.4,-111.300002c-0.8,0.8 -30.5,42.300001 -66.000001,92.200001l-64.600001,90.800001l0,20.5l0,20.5l-15.5,0l-15.5,0l0,15.5l0,15.5l256.000004,0l256.000004,0l0,-15.5l0,-15.5l-15.5,0l-15.5,0l0,-163.000002l0,-163.000002l-47.300001,0l-47.400001,0l-24.6,34.900001z"/>
 </g>
</svg>