<svg width="512" height="512" xmlns="http://www.w3.org/2000/svg" preserveAspectRatio="xMidYMid meet">
 <metadata>Created by potrace 1.16, written by Peter Selinger 2001-2019</metadata>

 <g>
  <title>background</title>
  <rect fill="none" id="canvas_background" height="396.608754" width="399.636443" y="-1" x="-1"/>
 </g>
 <g>
  <title>Layer 1</title>
  <path fill="#ffffff" id="svg_2" d="m81.500001,1.599992c-4.5,2.3 -7.6,5.5 -9.6,9.9c-1.8,3.8 -1.9,8.5 -1.9,87.700001l0,83.800001l-8.8,0c-5.4,0 -10.6,0.6 -13.5,1.6c-6,2 -12.6,7.9 -15.7,14l-2.5,4.9l-0.3,81.900001l-0.2,81.800001l2.5,5.7c3.4,7.4 6.7,10.7 14,14.2c5.3,2.5 7.1,2.9 15.3,2.9l9.2,0l0,53.300001l0,53.300001l2.3,4.4c1.2,2.4 3.9,5.8 6,7.4l3.9,3.1l173.800003,0l173.800003,0l3.9,-3.1c2.1,-1.6 4.8,-5 6.1,-7.4l2.2,-4.4l0,-53.300001l0,-53.300001l9.3,0c8.1,0 9.9,-0.4 15.2,-2.9c7.3,-3.5 10.6,-6.8 14,-14.2l2.5,-5.7l-0.2,-81.800001l-0.3,-81.900001l-2.5,-4.9c-3.1,-6.1 -9.7,-12 -15.7,-14c-2.9,-1 -8.1,-1.6 -13.5,-1.6l-8.8,0l0,-31.8c-0.1,-23 -0.4,-32.3 -1.3,-33.800001c-2,-3.3 -99.300001,-114.000002 -101.800002,-115.800002c-2.1,-1.5 -13.9,-1.6 -128.400002,-1.6c-112.200002,0 -126.300002,0.2 -129.000002,1.6zm240.700004,72.500001l0.3,53.100001l3.3,2.9l3.2,2.9l46.000001,0l46.000001,0l0,25l0,25l-165.000002,0l-165.000002,0l0,-81.000001l0,-81.000001l115.500002,0l115.400002,0l0.3,53.100001zm-68.900001,144.200002c19.3,6.2 33,20.8 39.700001,42.200001c2.7,8.7 3.7,26.8 2.1,37.500001c-5.5,34.900001 -29.9,56.000001 -65.000001,56.000001c-25.8,0 -45.100001,-11.6 -55.400001,-33.1c-5.6,-11.7 -7.8,-21.3 -7.8,-34.400001c0,-12.5 1.4,-20.6 5.2,-30.6c7.8,-20.2 24.5,-34.700001 45.400001,-39.300001c10.2,-2.3 25.7,-1.5 35.800001,1.7zm153.700002,-0.9c8.7,1.6 14.9,3.2 16.9,4.5c1.2,0.7 0.9,2.7 -1.4,12c-1.5,6.1 -3.1,11.1 -3.5,11.1c-0.4,0 -4.2,-0.9 -8.6,-2.1c-10.7,-2.8 -29.3,-3.1 -37.900001,-0.5c-12.9,3.8 -22.1,11.9 -26.6,23.4c-4.5,11.5 -3.6,32.1 1.9,42.700001c4.4,8.6 13.7,16.2 23.2,19.2c5.8,1.7 22.3,2.4 27.3,1l2.7,-0.7l0,-15l0,-15l-10.5,0l-10.5,0l0,-11.5l0,-11.5l25,0l25,0l-0.2,35.700001l-0.3,35.700001l-3,0.8c-23.7,6.8 -49.600001,8.1 -68.000001,3.3c-22.9,-6 -38.900001,-22.1 -45.200001,-45.500001c-2.5,-9.3 -2.2,-27.9 0.6,-38.300001c6.9,-25.9 27.5,-44.000001 55.900001,-49.100001c9.9,-1.8 27.7,-1.9 37.200001,-0.2zm-300.000004,54.600001l0,55.000001l27,0l27,0l0,12.5l0,12.5l-42.000001,0l-42.000001,0l0,-67.500001l0,-67.500001l15,0l15,0l0,55.000001zm314.000005,166.000002l0,48.000001l-165.000002,0l-165.000002,0l0,-48.000001l0,-48.000001l165.000002,0l165.000002,0l0,48.000001z"/>
  <path fill="#ffffff" id="svg_3" d="m226.500003,239.099996c-16.4,2.6 -26.7,17.9 -28.2,41.500001c-1.8,28.3 10.5,48.300001 30.6,50.100001c18.9,1.7 32.1,-12.3 35.100001,-37.700001c4.1,-32.9 -13.3,-57.900001 -37.500001,-53.900001z"/>
 </g>
</svg>