<svg width="512" height="512" xmlns="http://www.w3.org/2000/svg" preserveAspectRatio="xMidYMid meet">
 <metadata>Created by potrace 1.16, written by Peter Selinger 2001-2019</metadata>

 <g>
  <title>background</title>
  <rect fill="none" id="canvas_background" height="396.608754" width="399.636443" y="-1" x="-1"/>
 </g>
 <g>
  <title>Layer 1</title>
  <path fill="#ffffff" stroke="#ffffff" id="svg_2" d="m164.500002,1.099992c-12,1.5 -21,6.3 -29.8,15.8c-2.9,3.2 -6.4,8.3 -7.8,11.4l-2.4,5.7l-10.8,0c-8.7,0 -11.5,0.4 -14.6,2c-4.8,2.4 -9.5,7.9 -11,13l-1.1,3.8l-29.8,0.4c-33.2,0.5 -34.700001,0.8 -43.700001,7.6c-5.3,4 -10.9,12.2 -12.5,18.3c-0.7,2.4 -0.9,75.900001 -0.8,206.000003l0.3,202.400003l3.4,6.3c3.8,7 9,12 16,15.4l4.6,2.3l147.000002,0l147.000002,0l5.1,-2.7c6.4,-3.3 15,-12.6 16.5,-17.8l1.2,-3.9l71.600001,-0.3l71.600001,-0.3l5.6,-2.8c8.4,-4.1 14.3,-9.8 18.1,-17.5l3.3,-6.7l0,-216.500003l0,-216.500003l-2.9,-5.9c-3.7,-7.6 -10.1,-14 -17.4,-17.4l-5.7,-2.7l-157.500002,-0.1c-86.600001,0 -160.200002,0.3 -163.500002,0.7zm313.900005,31l2.6,2l0,209.000003c0,207.600003 0,208.900003 -2,210.900003c-2,2 -3.3,2 -69.000001,2l-67.000001,0l0,-185.900003c0,-180.000003 -0.1,-186.100003 -1.9,-192.000003c-4.1,-13.1 -14.3,-21.8 -28.2,-24.1c-3.5,-0.5 -17.9,-1 -32,-1l-25.7,0l-0.6,-3.4c-0.9,-5 -5.8,-11 -10.8,-13.5c-3.7,-1.7 -6.3,-2.1 -15.1,-2.1c-5.9,0 -10.7,-0.2 -10.7,-0.4c0,-0.2 -0.3,-1.1 -0.6,-2c-0.6,-1.5 11.2,-1.6 128.900002,-1.6c129.400002,0 129.400002,0 132.100002,2.1zm-302.900005,0c8.4,2.3 12.4,7.5 14.4,18.4c0.9,4.7 1.9,6.8 4.6,9.5l3.5,3.5l13,0.3l13,0.4l0,7.9l0,7.9l-53.000001,0l-53.000001,0l0,-8l0,-8l12.3,0c10.3,0 12.7,-0.3 15.4,-2c4.4,-2.6 6.2,-5.7 7.3,-12.3c1.5,-9.4 5.4,-14.6 12.7,-17.2c4.7,-1.7 4.9,-1.7 9.8,-0.4zm-88.500001,54.500001c0,10.1 8,20.9 17.2,23.2c6,1.5 128.500002,1.7 133.900002,0.2c9.4,-2.6 16,-10.6 16.7,-20l0.4,-6l26.2,0c22.1,0 26.5,0.2 28.4,1.6l2.2,1.5l0,195.900003l0,195.900003l-2.2,1.5c-2,1.4 -16.7,1.6 -138.000002,1.6c-85.700001,0 -136.600002,-0.4 -138.200002,-1l-2.6,-1l0,-196.900003c0,-186.600003 0.1,-197.100003 1.8,-198.000003c1,-0.6 12,-1.1 28,-1.1l26.2,0l0,2.6z"/>
  <path fill="#ffffff" stroke="#ffffff" id="svg_3" d="m124.300002,140.999994c-1.1,0.5 -8.7,8.3 -16.8,17.4c-8.1,9.1 -15,16.6 -15.4,16.6c-0.4,0 -2,-1.4 -3.7,-3.1c-4.1,-4.4 -7.8,-6 -13.4,-6.1c-5.8,0 -10.6,2.6 -13.3,7c-2.1,3.7 -2.2,11.3 -0.2,15.1c1.8,3.5 20.9,21.2 25.2,23.5c3.9,2 9.3,2.1 13.6,0.2c4,-1.6 43.000001,-45.700001 45.200001,-51.000001c2,-4.6 1.9,-7.2 -0.5,-12.3c-2.5,-5.6 -7,-8.3 -13.5,-8.2c-2.7,0 -6,0.4 -7.2,0.9z"/>
  <path fill="#ffffff" stroke="#ffffff" id="svg_4" d="m174.000003,183.799995c-4.9,2.6 -8.3,9.3 -7.7,15.1c0.6,5.5 3.2,9 8.8,11.9l4.4,2.3l46.500001,-0.3c44.700001,-0.3 46.600001,-0.4 50.000001,-2.3c9.4,-5.6 10,-19.4 1.2,-26c-2.6,-1.9 -4.5,-2 -51.200001,-2.3c-45.500001,-0.2 -48.700001,-0.1 -52.000001,1.6z"/>
  <path fill="#ffffff" stroke="#ffffff" id="svg_5" d="m66.400001,245.899996c-10,6.1 -10.7,19.5 -1.3,26.2l3.4,2.4l102.500002,0l102.500002,0l3.4,-2.4c7.2,-5.2 8.8,-15.7 3.4,-22.2c-5.3,-6.3 1.4,-5.9 -109.500002,-5.9c-97.400001,0 -101.400002,0.1 -104.400002,1.9z"/>
  <path fill="#ffffff" stroke="#ffffff" id="svg_6" d="m124.900002,312.599997c-2.5,1 -7.9,6.5 -17.9,17.9l-14.3,16.5l-3.9,-3.3c-8.4,-7 -14.3,-8.3 -20.8,-4.8c-7.2,3.8 -10.3,13.7 -6.6,21c2.4,4.6 23.6,23 27.9,24.2c4.7,1.2 9.8,0.3 13.7,-2.5c4.6,-3.3 41.100001,-45.600001 42.700001,-49.500001c3,-7.2 -1,-16.6 -8.4,-19.7c-4.1,-1.8 -7.8,-1.7 -12.4,0.2z"/>
  <path fill="#ffffff" stroke="#ffffff" id="svg_7" d="m177.500003,353.699998c-3.5,0.9 -8.7,5.4 -10.1,8.9c-2,4.7 -1.7,8.3 0.9,13.4c4.2,8.2 2.6,8 56.800001,8l47.600001,0l3.3,-2.3c5.3,-3.6 7.4,-7.1 7.4,-12.5c0,-6.5 -2.8,-11.1 -8.4,-14c-4.4,-2.2 -4.6,-2.2 -50.000001,-2.1c-25,0.1 -46.400001,0.4 -47.500001,0.6z"/>
  <path fill="#ffffff" stroke="#ffffff" id="svg_8" d="m65.600001,416.899999c-9.2,6.1 -9.4,20.4 -0.3,26c3.4,2.1 3.6,2.1 105.700002,2.1c102.100002,0 102.300002,0 105.700002,-2.1c9.1,-5.6 8.9,-20.2 -0.3,-26c-3,-1.8 -6.1,-1.9 -105.500002,-1.9c-99.100001,0 -102.500002,0.1 -105.300002,1.9z"/>
 </g>
</svg>