<svg width="512" height="512" xmlns="http://www.w3.org/2000/svg" preserveAspectRatio="xMidYMid meet">
 <metadata>Created by potrace 1.16, written by Peter Selinger 2001-2019</metadata>

 <g>
  <title>background</title>
  <rect fill="none" id="canvas_background" height="402" width="582" y="-1" x="-1"/>
 </g>
 <g>
  <title>Layer 1</title>
  <path fill="#ffffff" stroke="#ffffff" id="svg_2" d="m0,255.999996l0,256.000004l192.000003,0l192.000003,0l0,-211.800003l0,-211.700003l-44.300001,-44.300001l-44.200001,-44.200001l-147.800002,0l-147.700002,0l0,256.000004zm256.000004,-176.000003l0,48.000001l48.000001,0l48.000001,0l0,176.000003l0,176.000003l-160.000002,0l-160.000002,0l0,-224.000003l0,-224.000003l112.000002,0l112.000002,0l0,48.000001zm60.500001,-12l28,28l-28.3,0l-28.2,0l0,-28c0,-15.4 0.1,-28 0.3,-28c0.1,0 12.8,12.6 28.2,28z"/>
  <path fill="#ffffff" stroke="#ffffff" id="svg_3" d="m174.400003,161.899995c-22.4,6.5 -39.100001,23.7 -44.900001,46.100001c-2.6,9.9 -1.7,28.1 1.7,37.700001c6.5,18.2 21.3,32.8 39.800001,39.500001c5.7,2 8.3,2.3 21,2.3c13.2,0 15.2,-0.2 21.7,-2.6c18.3,-6.7 32.8,-21.4 39.500001,-39.900001c2,-5.7 2.3,-8.3 2.3,-21c0,-13.2 -0.2,-15.2 -2.6,-21.7c-6.7,-18.3 -21.5,-33 -39.900001,-39.400001c-9,-3.2 -29.6,-3.7 -38.600001,-1z"/>
  <path fill="#ffffff" stroke="#ffffff" id="svg_4" d="m82.900001,322.299997c-7.8,3.3 -12.1,6.9 -15.5,12.9l-2.9,5.3l-0.3,53.700001l-0.3,53.800001l128.100002,0l128.000002,0l0,-51.800001c0,-51.600001 -0.1,-51.700001 -2.3,-57.300001c-3.3,-7.8 -6.8,-12.1 -12.9,-15.5l-5.3,-2.9l-105.500002,-0.2l-105.500002,-0.3l-5.6,2.3z"/>
 </g>
</svg>