<svg width="100" height="100" xmlns="http://www.w3.org/2000/svg" preserveAspectRatio="xMidYMid meet">
 <metadata>Created by potrace 1.16, written by Peter Selinger 2001-2019</metadata>

 <g>
  <title>background</title>
  <rect fill="none" id="canvas_background" height="402" width="582" y="-1" x="-1"/>
 </g>
 <g>
  <title>Layer 1</title>
  <path stroke="#ffffff" stroke-opacity="0" fill="#ffffff" id="svg_2" d="m32.7,1.399999c-2.6,0.7 -5.9,2.4 -7.4,3.7c-4.4,4.1 -5.2,7.5 -5.1,21.4c0.1,11 0.3,13 1.9,14.6c1.1,1.1 1.9,2.5 1.9,3.1c0,0.7 0.9,2.8 2.1,4.7c1.3,2.1 1.9,4.6 1.7,7c-0.3,3.5 -0.6,3.7 -10.5,8.6c-13.9,6.8 -17.3,10.3 -17.3,18l0,3.5l25.1,0c23.3,0 25,-0.1 24.7,-1.8c-0.3,-1.5 -2.3,-1.7 -22.6,-2c-12.2,-0.1 -22.2,-0.5 -22.2,-0.8c0,-0.3 0.7,-1.8 1.6,-3.3c1.9,-3.3 5.9,-5.8 14.7,-9.5c8.9,-3.8 11.7,-7.1 11.7,-14.1c0,-3.2 -0.5,-5.7 -1.4,-6.4c-0.7,-0.6 -1.9,-3.1 -2.6,-5.6c-0.7,-2.4 -1.8,-4.6 -2.6,-4.9c-1.6,-0.6 -1.9,-4.3 -0.4,-4.8c0.6,-0.2 0.6,-1.8 0,-4.3c-3.1,-13.4 0.3,-20.7 10.7,-23c3.5,-0.7 10.3,1 10.3,2.6c0,0.5 0.9,0.9 2,0.9c2.8,0 5.8,3.6 6.4,7.9c0.4,2 0,6.3 -0.8,9.6c-0.9,3.5 -1.1,6.1 -0.5,6.3c1.4,0.6 1.1,4.2 -0.5,4.8c-0.8,0.3 -1.9,2.5 -2.6,4.9c-0.7,2.5 -1.9,5 -2.6,5.6c-0.9,0.7 -1.4,3.2 -1.4,6.5c0,4.1 0.5,5.9 2.4,8l2.3,2.8l1.2,-2.2c0.8,-1.6 0.9,-2.8 0.1,-4.1c-1.5,-2.9 -1.2,-5.7 1,-9.8c1.1,-2.1 2,-4.3 2,-5c0,-0.7 0.9,-2.2 2,-3.3c1.9,-1.9 2.1,-4 2.3,-22.5c0.1,-7 -2.2,-10.7 -8.8,-14.4c-6.6,-3.7 -12.3,-4.6 -18.8,-2.7z"/>
  <path stroke="#ffffff" stroke-opacity="0" fill="#ffffff" id="svg_3" d="m65.500001,53.899999c-8.7,4 -13.5,12 -13.5,22.3c0.1,14.2 9.7,23.8 24,23.8c14.4,0 24,-9.6 24,-24c0,-10.4 -5.3,-18.7 -14.2,-22.4c-5.2,-2.2 -15.3,-2 -20.3,0.3zm19.3,5c6.7,3.4 10.2,9.3 10.2,17.1c0,11.1 -7.9,19 -19,19c-11.1,0 -19,-7.9 -19,-19c0,-11.1 7.7,-18.9 18.8,-19c3.3,0 6.7,0.7 9,1.9z"/>
  <path stroke="#ffffff" stroke-opacity="0" fill="#ffffff" id="svg_4" d="m74.000001,69l0,5l-5,0c-4.3,0 -5,0.3 -5,2c0,1.7 0.7,2 5,2l5,0l0,5c0,4.3 0.3,5 2,5c1.7,0 2,-0.7 2,-5l0,-5l5,0c4.3,0 5,-0.3 5,-2c0,-1.7 -0.7,-2 -5,-2l-5,0l0,-5c0,-4.3 -0.3,-5 -2,-5c-1.7,0 -2,0.7 -2,5z"/>
 </g>
</svg>