<svg xmlns="http://www.w3.org/2000/svg" width="32" height="32" viewBox="0 0 32 32"><defs><style>.a,.c{fill:#fff;}.b{fill:none;}.c{opacity:0;}</style></defs><g transform="translate(-22 -246)"><g transform="translate(25 250)"><path class="a" d="M20.75,24a.75.75,0,0,0,.75-.75V.75A.75.75,0,0,0,20.75,0h-15A.75.75,0,0,0,5,.75v22.5a.75.75,0,0,0,.75.75ZM6.5,1.5H20v21H6.5Z"/><path class="a" d="M18.75,18h-9a.75.75,0,0,0,0,1.5h9a.75.75,0,0,0,0-1.5Z" transform="translate(-1 -4.5)"/><path class="a" d="M18.75,22h-9a.75.75,0,0,0,0,1.5h9a.75.75,0,0,0,0-1.5Z" transform="translate(-1 -5.5)"/><path class="a" d="M18.75,26h-9a.75.75,0,0,0,0,1.5h9a.75.75,0,0,0,0-1.5Z" transform="translate(-1 -6.5)"/><g transform="translate(7.617 2.065)"><path class="b" d="M0,0H11.318V11.318H0Z"/><path class="a" d="M6.187,4.5A5.577,5.577,0,0,0,1,8.037a5.573,5.573,0,0,0,10.375,0A5.577,5.577,0,0,0,6.187,4.5Zm0,5.895A2.358,2.358,0,1,1,8.545,8.037,2.359,2.359,0,0,1,6.187,10.395Zm0-3.773A1.415,1.415,0,1,0,7.6,8.037,1.413,1.413,0,0,0,6.187,6.622Z" transform="translate(-0.528 -2.378)"/></g></g><rect class="c" width="32" height="32" transform="translate(22 246)"/></g></svg>