<svg xmlns="http://www.w3.org/2000/svg" width="41.332" height="43.738" viewBox="0 0 41.332 43.738">
    <defs>
        <style>
            .cls-1{fill:#29abe2}.cls-2{fill:#ffcb23}
        </style>
    </defs>
    <g id="Contact_us_icon" data-name="Contact us icon" transform="translate(-41.727 -823.262)">
        <g id="Group_335" data-name="Group 335" transform="translate(-2733 36)">
            <circle id="Ellipse_41" cx="4.5" cy="4.5" r="4.5" class="cls-1" data-name="Ellipse 41" transform="translate(2791 822)"/>
            <path id="Path_304" d="M2807.341 804.636v13.884s8.532 1.268 8.532-7.017-8.532-6.867-8.532-6.867z" class="cls-1" data-name="Path 304"/>
            <path id="Path_305" d="M2815.3 804.636v13.884s-7.958 1.268-7.958-7.017 7.958-6.867 7.958-6.867z" class="cls-1" data-name="Path 305" transform="translate(-32)"/>
            <g id="Group_334" data-name="Group 334" transform="translate(2762 770)">
                <path id="Rectangle_1666" d="M0 0h14.135v3.665H0z" data-name="Rectangle 1666" transform="translate(26.041 37.035)"/>
                <path id="Path_302" d="M48.659 51H36.094A2.094 2.094 0 0 0 34 53.094v7.329a2.094 2.094 0 0 0 2.094 2.094h4.5l1.782 1.783 1.785-1.785h4.5a2.094 2.094 0 0 0 2.094-2.094v-7.327A2.094 2.094 0 0 0 48.659 51zm-9.424 6.806h-2.094v-2.094h2.094zm4.188 0h-2.094v-2.094h2.094zm4.188 0h-2.093v-2.094h2.094z" class="cls-2" data-name="Path 302" transform="translate(-9.529 -17.629)"/>
            </g>
        </g>
        <g id="Group_336" data-name="Group 336">
            <path id="Path_306" d="M233.353 373.265a5.111 5.111 0 1 1 0-10.223 5.054 5.054 0 0 1 5 4.033l.076.361h3.708a5.094 5.094 0 0 0 5.01-3.857l.146-.567h-1.582a1.892 1.892 0 0 1-1.889-1.889v-12.3a1.892 1.892 0 0 1 1.889-1.889h.454v-1.04a13.929 13.929 0 1 0-27.858 0v1.04h.454a1.891 1.891 0 0 1 1.889 1.889v12.3a1.891 1.891 0 0 1-1.889 1.889h-.586a6.584 6.584 0 0 1-6.576-6.576v-2.929a6.525 6.525 0 0 1 4.929-6.355l.344-.086v-1.174a15.364 15.364 0 1 1 30.728 0v1.174l.344.086a6.525 6.525 0 0 1 4.928 6.355v.454h.059v2.474a6.586 6.586 0 0 1-3.892 5.972l-.244.11-.022.267a6.643 6.643 0 0 1-6.578 6.085h-3.767l-.076.361a5.054 5.054 0 0 1-4.999 4.035zm.059-8.729a3.726 3.726 0 0 0-3.677 3.676 3.681 3.681 0 0 0 3.677 3.676 3.676 3.676 0 1 0 0-7.352zm11.849-2.9h1.04a5.147 5.147 0 0 0 5.141-5.141v-2.93a5.147 5.147 0 0 0-5.141-5.141h-1.04zm-27.081-13.212a5.146 5.146 0 0 0-5.141 5.141v2.93a5.146 5.146 0 0 0 5.141 5.141h1.04v-13.211z" data-name="Path 306" transform="translate(-169.876 492.735)"/>
        </g>
    </g>
</svg>
